<svg width="26" height="25" viewBox="0 0 26 25" fill="none" xmlns="http://www.w3.org/2000/svg">
<path d="M24.0703 0.996315C23.7344 1.01194 23.418 1.1096 23.1367 1.21897H23.1328C22.8477 1.33225 21.4922 1.90257 19.4336 2.76585C17.375 3.63303 14.7031 4.75803 12.0508 5.87522C6.75392 8.10569 1.54689 10.301 1.54689 10.301L1.60939 10.2776C1.60939 10.2776 1.25002 10.3948 0.875016 10.6526C0.68361 10.7776 0.472672 10.9494 0.289079 11.219C0.105485 11.4885 -0.0429527 11.9026 0.0117353 12.3283C0.101579 13.051 0.570329 13.4846 0.906266 13.7229C1.24611 13.9651 1.57033 14.0783 1.57033 14.0783H1.57814L6.46095 15.7229C6.6797 16.426 7.94924 20.5979 8.25392 21.5588C8.43361 22.133 8.60939 22.4924 8.82814 22.7658C8.93361 22.9065 9.05861 23.0237 9.20705 23.1174C9.26564 23.1526 9.32814 23.1799 9.39064 23.2033C9.41017 23.2151 9.4297 23.219 9.45314 23.2229L9.40236 23.2112C9.41798 23.2151 9.4297 23.2268 9.44142 23.2307C9.48049 23.2424 9.50783 23.2463 9.55861 23.2541C10.332 23.4885 10.9531 23.008 10.9531 23.008L10.9883 22.9807L13.8711 20.3557L18.7031 24.0627L18.8125 24.1096C19.8203 24.551 20.8399 24.3049 21.3789 23.8713C21.9219 23.4338 22.1328 22.8752 22.1328 22.8752L22.168 22.7854L25.9024 3.65647C26.0078 3.18382 26.0352 2.74241 25.918 2.31272C25.8008 1.88303 25.5 1.48069 25.1367 1.26585C24.7695 1.0471 24.4063 0.98069 24.0703 0.996315ZM23.9688 3.0471C23.9649 3.1096 23.9766 3.10178 23.9492 3.22288V3.2346L20.25 22.1643C20.2344 22.1916 20.207 22.2502 20.1328 22.3088C20.0547 22.3713 19.9922 22.4104 19.668 22.2815L13.7578 17.7502L10.1875 21.0041L10.9375 16.2151C10.9375 16.2151 20.1953 7.58616 20.5938 7.21507C20.9922 6.84397 20.8594 6.76585 20.8594 6.76585C20.8867 6.31272 20.2578 6.63303 20.2578 6.63303L8.08205 14.176L8.07814 14.1565L2.2422 12.1916V12.1877C2.2383 12.1877 2.23049 12.1838 2.22658 12.1838C2.23049 12.1838 2.25783 12.1721 2.25783 12.1721L2.28908 12.1565L2.32033 12.1448C2.32033 12.1448 7.53127 9.94944 12.8281 7.71897C15.4805 6.60178 18.1524 5.47678 20.207 4.6096C22.2617 3.74632 23.7813 3.1135 23.8672 3.07835C23.9492 3.0471 23.9102 3.0471 23.9688 3.0471Z" fill="#838794"/>
</svg>
