<svg width="34" height="26" viewBox="0 0 34 26" fill="none" xmlns="http://www.w3.org/2000/svg">
<path fill-rule="evenodd" clip-rule="evenodd" d="M3.26673 23.4H30.7334V2.59998H3.26515L3.2843 7.46429L3.48275 7.57935C5.3472 8.66042 6.60006 10.6811 6.60006 13C6.60006 15.3009 5.33173 17.3389 3.46609 18.4206L3.26673 18.5362V23.4ZM17.257 14.7182L13.2561 7.7833L14.8734 7.34432L21.5558 13.5768L25.836 12.4366C26.1449 12.355 26.4735 12.3988 26.7504 12.5583C27.026 12.7171 27.2281 12.978 27.313 13.2845C27.39 13.5975 27.3427 13.9283 27.1809 14.2073C27.0188 14.4868 26.7546 14.6924 26.444 14.7809L11.9768 18.6345L9.62319 14.5512L10.4771 14.3216L12.5769 15.9715L17.257 14.7182ZM3.66673 0.0666504H30.6501C32.0586 0.0666504 33.2667 1.34839 33.2667 2.99998V23C33.2667 24.6124 31.9458 25.9333 30.3334 25.9333H3.66673C2.05431 25.9333 0.733398 24.6124 0.733398 23V16.7122C2.6153 16.5125 4.06673 14.919 4.06673 13C4.06673 11.0832 2.6179 9.48927 0.750065 9.28806V2.99998C0.750065 1.38495 2.05692 0.0666504 3.66673 0.0666504Z" fill="white"/>
</svg>
