<svg width="60" height="60" viewBox="0 0 60 60" fill="none" xmlns="http://www.w3.org/2000/svg">
<path fill-rule="evenodd" clip-rule="evenodd" d="M49.6766 33.9442L41.7441 41.6108L41.7441 54.4304H44.5357C45.019 54.4304 45.4107 54.8222 45.4107 55.3054C45.4107 55.7887 45.019 56.1804 44.5357 56.1804H37.2024C36.7192 56.1804 36.3274 55.7887 36.3274 55.3054C36.3274 54.8222 36.7192 54.4304 37.2024 54.4304H39.9941L39.9941 41.6107L32.0616 33.9442C31.6036 33.5016 31.9169 32.7266 32.5538 32.7266H49.1843C49.8212 32.7266 50.1346 33.5016 49.6766 33.9442ZM40.8691 40.0227L35.1305 34.4766L46.6076 34.4766L40.8691 40.0227Z" fill="#343947"/>
<path fill-rule="evenodd" clip-rule="evenodd" d="M25.6487 36.2261H14.7222V48.7476H25.6487V36.2261ZM16.4722 46.9976V37.9761H23.8987V46.9976H16.4722Z" fill="#343947"/>
<path fill-rule="evenodd" clip-rule="evenodd" d="M17.4422 3.625C16.8669 3.625 16.4006 4.09137 16.4006 4.66667V7.04636H15.798C15.3148 7.04636 14.923 7.43811 14.923 7.92136C14.923 8.4046 15.3148 8.79636 15.798 8.79636H16.4006V13.7714C16.4006 18.0232 15.6546 21.7163 13.0357 27.9131C11.5222 31.4944 10.3826 35.307 10.2055 39.2709C10.0032 43.7989 10.1092 47.5685 10.5426 52.9326C10.5932 53.5592 10.9879 54.1157 11.5745 54.3638C14.7654 55.7132 17.367 56.3927 20.0215 56.3759C22.6706 56.3591 25.2918 55.6489 28.5182 54.3562C29.0948 54.1251 29.4981 53.5958 29.5739 52.9843C30.2863 47.238 30.4548 43.3051 30.045 38.3215C29.7689 34.964 28.7319 31.7582 27.4969 28.7225C25.067 22.7499 23.6322 17.3633 23.6322 13.7714V8.79636H24.573C25.0562 8.79636 25.448 8.40461 25.448 7.92136C25.448 7.43811 25.0562 7.04636 24.573 7.04636H23.6322V4.66667C23.6322 4.09137 23.1658 3.625 22.5905 3.625H17.4422ZM18.1506 13.7714V8.79636H21.8822V13.7714C21.8822 17.7129 23.4247 23.3571 25.8759 29.382C27.0828 32.3485 28.046 35.3644 28.3009 38.465C28.6977 43.2915 28.5396 47.0957 27.8405 52.7424C24.7142 53.9932 22.3358 54.6112 20.0104 54.6259C17.691 54.6406 15.3443 54.0554 12.2847 52.7641C11.8576 47.4693 11.7558 43.7799 11.9538 39.349C12.1183 35.665 13.181 32.0647 14.6477 28.5944C17.3313 22.2442 18.1506 18.3164 18.1506 13.7714ZM21.8822 7.04636H18.1506V5.375H21.8822V7.04636Z" fill="#343947"/>
</svg>
