<svg width="60" height="60" viewBox="0 0 60 60" fill="none" xmlns="http://www.w3.org/2000/svg">
<path d="M21.4839 15.3875C21.4839 14.7244 22.0213 14.187 22.6843 14.187C23.3473 14.187 23.8848 14.7244 23.8848 15.3875C23.8848 16.0505 23.3473 16.5879 22.6843 16.5879C22.0213 16.5879 21.4839 16.0505 21.4839 15.3875Z" fill="#343947"/>
<path d="M36.0676 15.3875C36.0676 14.7244 36.6051 14.187 37.2681 14.187C37.9311 14.187 38.4686 14.7244 38.4686 15.3875C38.4686 16.0505 37.9311 16.5879 37.2681 16.5879C36.6051 16.5879 36.0676 16.0505 36.0676 15.3875Z" fill="#343947"/>
<path d="M21.4839 25.0164C21.4839 24.3534 22.0213 23.8159 22.6843 23.8159C23.3473 23.8159 23.8848 24.3534 23.8848 25.0164C23.8848 25.6794 23.3473 26.2169 22.6843 26.2169C22.0213 26.2169 21.4839 25.6794 21.4839 25.0164Z" fill="#343947"/>
<path d="M36.0676 25.0164C36.0676 24.3534 36.6051 23.8159 37.2681 23.8159C37.9311 23.8159 38.4686 24.3534 38.4686 25.0164C38.4686 25.6794 37.9311 26.2169 37.2681 26.2169C36.6051 26.2169 36.0676 25.6794 36.0676 25.0164Z" fill="#343947"/>
<path fill-rule="evenodd" clip-rule="evenodd" d="M50.2997 15.6471V26.6552L50.6468 26.7552C50.8257 26.8068 51.0024 26.8654 51.1764 26.9309C51.9767 27.2322 52.7038 27.6737 53.3162 28.2303C53.9285 28.7868 54.4142 29.4474 54.7455 30.1744C55.0768 30.9013 55.2473 31.6803 55.2473 32.467C55.2473 33.2537 55.0768 34.0327 54.7455 34.7596C54.4142 35.4865 53.9285 36.1471 53.3162 36.7037C52.7038 37.2602 51.9767 37.7018 51.1764 38.0031C51.0024 38.0686 50.8257 38.1272 50.6468 38.1787L50.2997 38.2788V49.1501C50.2997 50.6293 49.4141 51.9018 48.1431 52.4658L47.8579 52.5925V54.3734C47.8579 54.8662 47.4583 55.2658 46.9654 55.2658C46.4725 55.2658 46.073 54.8662 46.073 54.3734V52.7759H13.8698V54.3734C13.8698 54.8662 13.4703 55.2658 12.9774 55.2658C12.4845 55.2658 12.0849 54.8662 12.0849 54.3734V52.6131L11.7925 52.489C10.4931 51.9371 9.58269 50.6499 9.58269 49.1501V38.2499L9.24315 38.146C9.10181 38.1027 8.96194 38.0551 8.82379 38.0031C8.02346 37.7018 7.29636 37.2602 6.68399 36.7037C6.07162 36.1471 5.58596 35.4865 5.25466 34.7596C4.92336 34.0327 4.75287 33.2537 4.75287 32.467C4.75287 31.6803 4.92336 30.9013 5.25466 30.1744C5.58596 29.4474 6.07161 28.7868 6.68399 28.2303C7.29636 27.6737 8.02345 27.2322 8.82379 26.9309C8.96194 26.8789 9.10181 26.8312 9.24315 26.788L9.58269 26.6841V15.6471C9.58269 9.61908 14.4694 4.73242 20.4974 4.73242H39.385C45.4131 4.73242 50.2997 9.61909 50.2997 15.6471ZM9.23624 36.2534L9.24824 36.259C10.5411 36.8617 11.3676 38.159 11.3676 39.5855V49.1501C11.3676 50.1668 12.1918 50.9909 13.2085 50.9909H14.4868V32.4893C14.4868 31.0907 13.7521 29.8635 12.6499 29.1727C12.2277 28.9081 11.7549 28.7883 11.3538 28.6976C11.2267 28.6689 11.0968 28.6544 10.9666 28.6544H9.92241C9.82842 28.6544 9.7347 28.6646 9.64291 28.6848C9.16636 28.7895 8.63794 28.9546 8.18749 29.2987C8.08228 29.379 7.98117 29.4633 7.88446 29.5512C7.44474 29.9508 7.10616 30.4158 6.87884 30.9146C6.65178 31.4128 6.53778 31.9397 6.53778 32.467C6.53778 32.9943 6.65178 33.5212 6.87884 34.0194C7.10616 34.5181 7.44474 34.9831 7.88446 35.3828C8.16693 35.6395 8.48696 35.8656 8.83764 36.0538L9.23624 36.2534ZM11.3676 15.6471V26.8342L11.7492 26.9141C14.3323 27.4551 16.2717 29.7459 16.2717 32.4893V35.8831L17.0427 35.2954C18.1115 34.4806 19.446 33.9965 20.8944 33.9965H39.0885C40.5201 33.9965 41.8404 34.4694 42.9029 35.2671L43.6711 35.8438V32.4893C43.6711 29.7656 45.5827 27.4881 48.1379 26.926L48.5148 26.8431V15.6471C48.5148 10.6049 44.4273 6.51733 39.385 6.51733H20.4974C15.4551 6.51733 11.3676 10.6049 11.3676 15.6471ZM50.2013 28.7554H48.6386L48.605 28.7601C48.1632 28.823 47.6502 28.933 47.2022 29.2313C46.1506 29.9315 45.456 31.1295 45.456 32.4893V50.9909H46.6739C47.6906 50.9909 48.5148 50.1668 48.5148 49.1501V39.6347C48.5148 38.2013 49.3487 36.8975 50.6494 36.2947L51.1391 36.0662L51.1624 36.0537C51.5131 35.8654 51.8332 35.6395 52.1157 35.3828C52.5554 34.9831 52.894 34.5181 53.1213 34.0194C53.3484 33.5212 53.4624 32.9942 53.4624 32.467C53.4624 31.9397 53.3484 31.4128 53.1213 30.9146C52.894 30.4158 52.5554 29.9508 52.1157 29.5512C52.0377 29.4803 51.9569 29.4118 51.8734 29.3458C51.3724 28.95 50.7623 28.8059 50.2145 28.7572L50.2013 28.7554ZM16.3202 40.3556V50.9909H43.6627V40.3556C43.6627 37.8294 41.6148 35.7814 39.0885 35.7814H20.8944C18.3682 35.7814 16.3202 37.8294 16.3202 40.3556Z" fill="#343947"/>
</svg>
