<svg width="60" height="60" viewBox="0 0 60 60" fill="none" xmlns="http://www.w3.org/2000/svg">
<path d="M27.4178 10.3353C27.0968 10.3733 26.777 10.4183 26.4588 10.4703C26.7394 10.4245 27.0211 10.384 27.3038 10.3491L27.4178 10.3353Z" fill="#343947"/>
<path d="M32.6964 10.3491C32.6584 10.3444 32.6204 10.3398 32.5824 10.3353C32.669 10.2511 32.7516 10.1627 32.8297 10.0705C32.7762 10.1336 32.7207 10.1949 32.6632 10.2543C32.6366 10.2817 32.6097 10.3087 32.5824 10.3353L32.6964 10.3491C32.6964 10.3491 32.6964 10.3491 32.6964 10.3491Z" fill="#343947"/>
<path d="M24.8457 16.3498C25.3017 16.1739 25.814 16.401 25.9899 16.8571C26.1657 17.3131 25.9386 17.8254 25.4826 18.0012C22.8155 19.0298 21.0142 20.0421 19.5414 21.3419C18.0642 22.6455 16.8676 24.2817 15.4679 26.6391C15.2184 27.0594 14.6754 27.1978 14.2551 26.9482C13.8349 26.6987 13.6965 26.1557 13.946 25.7354C15.3821 23.3167 16.6899 21.4976 18.3702 20.0147C20.0549 18.528 22.0643 17.4225 24.8457 16.3498Z" fill="#343947"/>
<path fill-rule="evenodd" clip-rule="evenodd" d="M32.5196 10.2707L32.3841 10.4024L32.5718 10.4247C37.6867 11.0303 42.4794 13.4293 46.1455 17.2633C50.0557 21.3527 52.3927 26.7683 52.7619 32.4888L52.7674 32.573H55.3855C55.8743 32.573 56.2705 32.9692 56.2705 33.458C56.2705 33.9468 55.8743 34.343 55.3855 34.343H4.61458C4.12581 34.343 3.72958 33.9468 3.72958 33.458C3.72958 32.9692 4.12581 32.573 4.61458 32.573H7.23263L7.23807 32.4888C7.60733 26.7683 9.94432 21.3527 13.8545 17.2633C17.5207 13.4292 22.3134 11.0302 27.4284 10.4246L27.6161 10.4024L27.4805 10.2707C26.804 9.6135 26.3839 8.69427 26.3839 7.67675C26.3839 5.67958 28.0029 4.06055 30.0001 4.06055C31.9973 4.06055 33.6163 5.67958 33.6163 7.67675C33.6163 8.69427 33.1961 9.61351 32.5196 10.2707ZM9.01286 32.4767L9.00612 32.573H50.9939L50.9871 32.4767C50.6182 27.2083 48.4528 22.2375 44.8662 18.4866C40.9164 14.3558 35.568 12.0429 30 12.0429C24.432 12.0429 19.0836 14.3558 15.1338 18.4866C11.5472 22.2375 9.38185 27.2083 9.01286 32.4767ZM30.0001 5.83055C28.9805 5.83055 28.1539 6.65712 28.1539 7.67675C28.1539 8.69638 28.9805 9.52295 30.0001 9.52295C31.0197 9.52295 31.8463 8.69638 31.8463 7.67675C31.8463 6.65712 31.0197 5.83055 30.0001 5.83055Z" fill="#343947"/>
<path d="M19.5837 40.8592C19.5801 40.8115 19.5745 40.7644 19.567 40.7178C19.5709 40.742 19.5743 40.7663 19.5771 40.7908L19.5774 40.7934C19.579 40.8073 19.5804 40.8212 19.5817 40.8352C19.5824 40.8432 19.5831 40.8512 19.5837 40.8592Z" fill="#343947"/>
<path d="M26.8359 37.6993C26.8495 37.6933 26.8632 37.6873 26.877 37.6814L26.8359 37.6993Z" fill="#343947"/>
<path d="M26.877 37.6814L26.9184 37.6635L26.877 37.6814Z" fill="#343947"/>
<path fill-rule="evenodd" clip-rule="evenodd" d="M54.2923 43.6754L54.2085 43.7868L41.0594 53.1032C39.8859 53.9347 38.4813 54.3777 37.0429 54.3699L19.5009 54.275L19.4976 54.3645C19.4647 55.2371 18.7469 55.9346 17.8661 55.9346H12.6938C11.7921 55.9346 11.0611 55.2036 11.0611 54.3019V40.9921C11.0611 40.0904 11.7921 39.3595 12.6938 39.3595H17.8661C18.7335 39.3595 19.443 40.0359 19.4956 40.89L19.5038 41.0225L26.8721 37.7817C27.9358 37.3139 29.0852 37.0723 30.2472 37.0723H40.7782L40.7804 37.0723L40.7873 37.0723L40.8015 37.0725L40.8333 37.0735C40.8597 37.0746 40.8934 37.0766 40.9334 37.08C41.0136 37.0869 41.1208 37.1001 41.2465 37.1255C41.4948 37.1755 41.8341 37.2767 42.1803 37.4859C42.9296 37.9388 43.554 38.8046 43.554 40.2461C43.554 41.6877 42.9296 42.5534 42.1803 43.0063C41.8341 43.2156 41.4948 43.3168 41.2465 43.3668C41.1493 43.3864 41.0622 43.3988 40.991 43.4066L40.9671 43.4087L34.5156 43.4205L38.9994 46.4633L50.3592 39.4759L50.3605 39.4751L50.374 39.4662C50.3938 39.4534 50.42 39.4369 50.4522 39.4175C50.5166 39.3786 50.606 39.3276 50.7158 39.2726C50.9318 39.1643 51.2442 39.0312 51.6121 38.9499C52.3637 38.7838 53.4411 38.8293 54.2658 39.8255C55.0386 40.7589 55.0333 41.7645 54.8481 42.4806C54.7575 42.831 54.6235 43.1208 54.514 43.322C54.4586 43.4237 54.4077 43.506 54.3686 43.5657C54.3489 43.5956 54.3314 43.621 54.3183 43.6396L54.3028 43.6613L54.3015 43.663L54.2962 43.6702L54.2935 43.6739L54.2923 43.6754ZM27.5827 39.3975L19.4988 42.953V52.5098L37.0525 52.6048C38.122 52.6106 39.1664 52.2812 40.039 51.6629L52.9386 42.5233L52.9489 42.5047L52.9637 42.4779C52.9738 42.4594 52.9841 42.4398 52.9946 42.419C53.0467 42.3153 53.1015 42.1844 53.1392 42.0387C53.2255 41.7047 53.2208 41.3311 52.9062 40.9511C52.7697 40.7863 52.6276 40.7015 52.4822 40.664C52.3344 40.6258 52.1723 40.6338 51.993 40.6735C51.8389 40.7075 51.6935 40.7628 51.5739 40.8182C51.5506 40.829 51.5283 40.8398 51.5071 40.8504C51.4438 40.8822 51.3946 40.9104 51.3637 40.929L51.3589 40.9319L51.3526 40.9358L51.3418 40.9426L51.3401 40.9437L51.3223 40.9553L51.3204 40.9566L51.311 40.9631L38.9524 48.5646L31.5509 43.5418C30.7091 42.9706 31.1134 41.6548 32.1307 41.6548L40.7614 41.6551L40.7816 41.6536C40.8051 41.6516 40.8459 41.6469 40.8979 41.6364C41.005 41.6148 41.1396 41.5728 41.2672 41.4957C41.3723 41.4322 41.4998 41.3304 41.6025 41.1445C41.7058 40.9574 41.7889 40.6761 41.7889 40.2461C41.7889 39.8161 41.7058 39.5348 41.6025 39.3477C41.4998 39.1618 41.3723 39.0601 41.2672 38.9966C41.1396 38.9194 41.005 38.8774 40.8979 38.8558C40.8459 38.8453 40.8037 38.8405 40.7802 38.8385L40.768 38.8374H30.2472C29.3298 38.8374 28.4225 39.0281 27.5827 39.3975ZM17.7336 41.1246H12.8263V54.1694L17.7336 54.1694L17.7336 41.1246Z" fill="#343947"/>
</svg>
