<svg width="26" height="26" viewBox="0 0 26 26" fill="none" xmlns="http://www.w3.org/2000/svg">
<path d="M24.2429 9.18532H1.75715V24.2425H24.2429V9.18532H25.9V25.071C25.9 25.2908 25.8127 25.5015 25.6573 25.6569C25.5019 25.8123 25.2912 25.8996 25.0714 25.8996H0.928578C0.708827 25.8996 0.498076 25.8123 0.342689 25.6569C0.187302 25.5015 0.100006 25.2908 0.100006 25.071V2.78532C0.100006 2.56557 0.187302 2.35482 0.342689 2.19944C0.498076 2.04405 0.708827 1.95675 0.928578 1.95675H5.67143V0.928181C5.67143 0.70843 5.75873 0.49768 5.91412 0.342292C6.06951 0.186905 6.28026 0.0996094 6.50001 0.0996094C6.71976 0.0996094 6.93051 0.186905 7.08589 0.342292C7.24128 0.49768 7.32858 0.70843 7.32858 0.928181V1.95675H18.6714V0.928181C18.6714 0.70843 18.7587 0.497679 18.9141 0.342292C19.0695 0.186905 19.2803 0.0996094 19.5 0.0996094C19.7198 0.0996094 19.9305 0.186905 20.0859 0.342292C20.2413 0.49768 20.3286 0.70843 20.3286 0.928181V1.95675H25.0714C25.2912 1.95675 25.5019 2.04405 25.6573 2.19944C25.8127 2.35482 25.9 2.56557 25.9 2.78532V7.52818H24.2429V3.6139H20.3286V4.64247C20.3286 4.86222 20.2413 5.07297 20.0859 5.22835C19.9305 5.38374 19.7198 5.47104 19.5 5.47104C19.2803 5.47104 19.0695 5.38374 18.9141 5.22835C18.7587 5.07297 18.6714 4.86222 18.6714 4.64247V3.6139H7.32858V4.64247C7.32858 4.86222 7.24128 5.07297 7.08589 5.22835C6.93051 5.38374 6.71976 5.47104 6.50001 5.47104C6.28026 5.47104 6.06951 5.38374 5.91412 5.22835C5.75873 5.07297 5.67143 4.86222 5.67143 4.64247V3.6139H1.75715V7.52818H24.2429V9.18532Z" fill="#838794"/>
<path d="M24.2429 7.52818V9.18532H25.9V7.52818H24.2429Z" fill="#838794"/>
<path d="M8.35715 13.0996C8.5769 13.0996 8.78765 13.1869 8.94304 13.3423C9.09842 13.4977 9.18572 13.7084 9.18572 13.9282C9.18572 14.1479 9.09842 14.3587 8.94304 14.5141C8.78765 14.6695 8.5769 14.7568 8.35715 14.7568H6.50001C6.28026 14.7568 6.06951 14.6695 5.91412 14.5141C5.75873 14.3587 5.67143 14.1479 5.67143 13.9282C5.67143 13.7084 5.75873 13.4977 5.91412 13.3423C6.0695 13.1869 6.28025 13.0996 6.50001 13.0996H8.35715Z" fill="#838794"/>
<path d="M8.35715 18.671C8.5769 18.671 8.78765 18.7583 8.94304 18.9137C9.09842 19.0691 9.18572 19.2799 9.18572 19.4996C9.18572 19.7194 9.09842 19.9301 8.94304 20.0855C8.78765 20.2409 8.5769 20.3282 8.35715 20.3282H6.50001C6.28026 20.3282 6.06951 20.2409 5.91412 20.0855C5.75873 19.9301 5.67143 19.7194 5.67143 19.4996C5.67143 19.2799 5.75873 19.0691 5.91412 18.9137C6.0695 18.7583 6.28025 18.671 6.50001 18.671H8.35715Z" fill="#838794"/>
<path d="M12.0714 13.0996H13.9286C14.1483 13.0996 14.3591 13.1869 14.5145 13.3423C14.6699 13.4977 14.7571 13.7084 14.7571 13.9282C14.7571 14.1479 14.6699 14.3587 14.5145 14.5141C14.3591 14.6695 14.1483 14.7568 13.9286 14.7568H12.0714C11.8517 14.7568 11.6409 14.6695 11.4855 14.5141C11.3302 14.3587 11.2429 14.1479 11.2429 13.9282C11.2429 13.7084 11.3302 13.4977 11.4855 13.3423C11.6409 13.1869 11.8517 13.0996 12.0714 13.0996Z" fill="#838794"/>
<path d="M12.0714 18.671H13.9286C14.1483 18.671 14.3591 18.7583 14.5145 18.9137C14.6699 19.0691 14.7571 19.2799 14.7571 19.4996C14.7571 19.7194 14.6699 19.9301 14.5145 20.0855C14.3591 20.2409 14.1483 20.3282 13.9286 20.3282H12.0714C11.8517 20.3282 11.6409 20.2409 11.4855 20.0855C11.3302 19.9301 11.2429 19.7194 11.2429 19.4996C11.2429 19.2799 11.3302 19.0691 11.4855 18.9137C11.6409 18.7583 11.8517 18.671 12.0714 18.671Z" fill="#838794"/>
<path d="M19.5 13.0996C19.7198 13.0996 19.9305 13.1869 20.0859 13.3423C20.2413 13.4977 20.3286 13.7084 20.3286 13.9282C20.3286 14.1479 20.2413 14.3587 20.0859 14.5141C19.9305 14.6695 19.7198 14.7568 19.5 14.7568H17.6429C17.4231 14.7568 17.2124 14.6695 17.057 14.5141C16.9016 14.3587 16.8143 14.1479 16.8143 13.9282C16.8143 13.7084 16.9016 13.4977 17.057 13.3423C17.2124 13.1869 17.4231 13.0996 17.6429 13.0996H19.5Z" fill="#838794"/>
<path d="M19.5 18.671C19.7198 18.671 19.9305 18.7583 20.0859 18.9137C20.2413 19.0691 20.3286 19.2799 20.3286 19.4996C20.3286 19.7194 20.2413 19.9301 20.0859 20.0855C19.9305 20.2409 19.7198 20.3282 19.5 20.3282H17.6429C17.4231 20.3282 17.2124 20.2409 17.057 20.0855C16.9016 19.9301 16.8143 19.7194 16.8143 19.4996C16.8143 19.2799 16.9016 19.0691 17.057 18.9137C17.2124 18.7583 17.4231 18.671 17.6429 18.671H19.5Z" fill="#838794"/>
</svg>
