<svg xmlns="http://www.w3.org/2000/svg" version="1.1" xmlns:xlink="http://www.w3.org/1999/xlink" xmlns:svgjs="http://svgjs.com/svgjs" width="512" height="512" x="0" y="0" viewBox="0 0 48 48" style="enable-background:new 0 0 512 512" xml:space="preserve" class=""><g><path d="M35 3.5H13c-.83 0-1.5.67-1.5 1.5v38c0 .83.67 1.5 1.5 1.5h22c.83 0 1.5-.67 1.5-1.5V5c0-.83-.67-1.5-1.5-1.5zm.5 39.5c0 .28-.22.5-.5.5H13c-.28 0-.5-.22-.5-.5v-4.5h23zm0-5.5h-23v-27h23zm0-28h-23V5c0-.28.22-.5.5-.5h22c.28 0 .5.22.5.5z" fill="#ffffff" data-original="#000000" class=""></path><path d="M26 6.5h-4c-.28 0-.5.22-.5.5s.22.5.5.5h4c.28 0 .5-.22.5-.5s-.22-.5-.5-.5zM22 41.5h4c.28 0 .5-.22.5-.5s-.22-.5-.5-.5h-4c-.28 0-.5.22-.5.5s.22.5.5.5zM38.5 15.5c-.28 0-.5.22-.5.5v16c0 .28.22.5.5.5s.5-.22.5-.5V16c0-.28-.22-.5-.5-.5zM41.5 18.5c-.28 0-.5.22-.5.5v10c0 .28.22.5.5.5s.5-.22.5-.5V19c0-.28-.22-.5-.5-.5zM9.5 15.5c-.28 0-.5.22-.5.5v16c0 .28.22.5.5.5s.5-.22.5-.5V16c0-.28-.22-.5-.5-.5zM6.5 18.5c-.28 0-.5.22-.5.5v10c0 .28.22.5.5.5s.5-.22.5-.5V19c0-.28-.22-.5-.5-.5z" fill="#ffffff" data-original="#000000" class=""></path></g></svg>