<svg width="42" height="42" viewBox="0 0 42 42" fill="none" xmlns="http://www.w3.org/2000/svg">
<mask id="path-1-inside-1_105_133" fill="white">
<path d="M21 0C16.8466 -4.95289e-08 12.7865 1.23163 9.33302 3.53914C5.87959 5.84665 3.18797 9.1264 1.59853 12.9636C0.00908955 16.8009 -0.406781 21.0233 0.403509 25.0969C1.2138 29.1705 3.21385 32.9123 6.15076 35.8492C9.08766 38.7861 12.8295 40.7862 16.9031 41.5965C20.9767 42.4068 25.1991 41.9909 29.0364 40.4015C32.8736 38.812 36.1534 36.1204 38.4609 32.667C40.7684 29.2135 42 25.1534 42 21H27.0107C27.0107 22.1888 26.6581 23.3509 25.9977 24.3393C25.3372 25.3278 24.3985 26.0982 23.3002 26.5531C22.2019 27.0081 20.9933 27.1271 19.8274 26.8952C18.6614 26.6632 17.5904 26.0908 16.7498 25.2502C15.9092 24.4096 15.3367 23.3386 15.1048 22.1726C14.8729 21.0067 14.9919 19.7981 15.4469 18.6998C15.9018 17.6015 16.6722 16.6628 17.6607 16.0023C18.6491 15.3419 19.8112 14.9893 21 14.9893V0Z"/>
</mask>
<path d="M21 0C16.8466 -4.95289e-08 12.7865 1.23163 9.33302 3.53914C5.87959 5.84665 3.18797 9.1264 1.59853 12.9636C0.00908955 16.8009 -0.406781 21.0233 0.403509 25.0969C1.2138 29.1705 3.21385 32.9123 6.15076 35.8492C9.08766 38.7861 12.8295 40.7862 16.9031 41.5965C20.9767 42.4068 25.1991 41.9909 29.0364 40.4015C32.8736 38.812 36.1534 36.1204 38.4609 32.667C40.7684 29.2135 42 25.1534 42 21H27.0107C27.0107 22.1888 26.6581 23.3509 25.9977 24.3393C25.3372 25.3278 24.3985 26.0982 23.3002 26.5531C22.2019 27.0081 20.9933 27.1271 19.8274 26.8952C18.6614 26.6632 17.5904 26.0908 16.7498 25.2502C15.9092 24.4096 15.3367 23.3386 15.1048 22.1726C14.8729 21.0067 14.9919 19.7981 15.4469 18.6998C15.9018 17.6015 16.6722 16.6628 17.6607 16.0023C18.6491 15.3419 19.8112 14.9893 21 14.9893V0Z" stroke="black" stroke-width="12" mask="url(#path-1-inside-1_105_133)"/>
</svg>
