<svg width="40" height="40" viewBox="0 0 40 40" fill="none" xmlns="http://www.w3.org/2000/svg">
<path d="M8.46267 21.8868C7.89448 22.2654 7.62175 23.0461 7.87176 23.7323C8.09903 24.3237 8.64449 24.7496 9.28086 24.7496C9.46268 24.7496 9.64451 24.7259 9.80359 24.655L13.9627 23.0225L13.7127 23.401C13.3718 23.9215 13.3945 24.6314 13.7809 25.1045C14.0309 25.4358 14.4173 25.625 14.8264 25.625C15.0082 25.625 15.2127 25.5777 15.3718 25.5067L17.4173 24.5604C17.5537 24.4894 17.69 24.4184 17.8037 24.3001L22.8037 19.4736L32.2129 15.7827C32.9857 15.4752 34.3494 14.4342 34.8265 13.3458C35.0765 12.7543 35.0084 12.2812 34.9175 11.9972C34.5765 11.1218 33.6675 10.625 32.3266 10.625C31.6674 10.625 30.9629 10.7433 30.4629 10.9326L13.2582 17.6755L8.12176 14.9073C7.68993 14.6707 7.14447 14.6707 6.73538 14.9073L5.80356 15.4042C5.39446 15.6171 5.12173 15.9957 5.03082 16.4688C4.93991 16.9184 5.05355 17.4152 5.32628 17.7701L8.46267 21.8868ZM7.4172 16.3506L12.8491 19.2843C13.0536 19.379 13.2809 19.4026 13.4854 19.3316L31.0084 12.4704C31.2811 12.3758 31.7811 12.2575 32.3266 12.2575C32.9629 12.2575 33.3721 12.4231 33.4629 12.5887C33.4402 12.9673 32.3947 14.0319 31.6674 14.3159L22.1219 18.054C22.031 18.1013 21.94 18.1487 21.8719 18.2196L16.7809 23.1171L15.3946 23.7559L16.7128 21.8159C16.9173 21.5319 16.8946 21.1297 16.69 20.8458C16.5309 20.6329 16.3037 20.5383 16.0764 20.5383C15.9855 20.5383 15.8946 20.5619 15.8037 20.5856L10.3718 22.7149C10.44 22.6439 10.4854 22.5493 10.5081 22.431C10.5763 22.1707 10.5309 21.9105 10.3718 21.7212L6.59901 16.8237L7.4172 16.3506Z" fill="#838794"/>
<path d="M34.249 28.125H5.7511C5.33137 28.125 5 28.4671 5 28.9004C5 29.3337 5.33137 29.6758 5.7511 29.6758H34.249C34.6687 29.6758 35 29.3337 35 28.9004C35 28.4671 34.6687 28.125 34.249 28.125Z" fill="#838794"/>
</svg>
