<svg width="40" height="40" viewBox="0 0 40 40" fill="none" xmlns="http://www.w3.org/2000/svg">
<path d="M34.249 31.9375H5.7511C5.33137 31.9375 5 32.2798 5 32.7135C5 33.1471 5.33137 33.4894 5.7511 33.4894H34.249C34.6687 33.4894 35 33.1471 35 32.7135C35 32.2798 34.6687 31.9375 34.249 31.9375Z" fill="#838794"/>
<path fill-rule="evenodd" clip-rule="evenodd" d="M19.8772 20.0127C23.5238 20.0057 27.1722 20.9676 31.6974 22.856C32.3656 23.1349 32.8 23.7904 32.8 24.5122V26.8127C32.8 27.8068 31.9941 28.6127 31 28.6127H9.00001C8.0059 28.6127 7.20001 27.8068 7.20001 26.8127V24.5069C7.20001 23.7903 7.6281 23.138 8.29032 22.856C12.6589 20.9961 16.2294 20.0197 19.8772 20.0127ZM19.8802 21.6127C16.5334 21.6192 13.1877 22.5099 8.91709 24.3282C8.84786 24.3576 8.80001 24.4286 8.80001 24.5069V26.8127C8.80001 26.9231 8.88956 27.0127 9.00001 27.0127H31C31.1105 27.0127 31.2 26.9231 31.2 26.8127V24.5122C31.2 24.4337 31.1515 24.3619 31.0812 24.3326C26.653 22.4847 23.2282 21.6063 19.8802 21.6127Z" fill="#838794"/>
<path fill-rule="evenodd" clip-rule="evenodd" d="M20 17.2125C22.4301 17.2125 24.4 15.2426 24.4 12.8125C24.4 10.3824 22.4301 8.4125 20 8.4125C17.5699 8.4125 15.6 10.3824 15.6 12.8125C15.6 15.2426 17.5699 17.2125 20 17.2125ZM20 18.8125C23.3137 18.8125 26 16.1262 26 12.8125C26 9.49879 23.3137 6.8125 20 6.8125C16.6863 6.8125 14 9.49879 14 12.8125C14 16.1262 16.6863 18.8125 20 18.8125Z" fill="#838794"/>
</svg>
