<svg width="40" height="40" viewBox="0 0 40 40" fill="none" xmlns="http://www.w3.org/2000/svg">
<path d="M8.83654 13.3671C8.15959 13.2783 7.44051 13.6868 7.17736 14.368C6.95935 14.963 7.08994 15.6425 7.56917 16.0612C7.70609 16.1809 7.85859 16.2827 8.02502 16.334L12.2313 17.841L11.7939 17.9616C11.1947 18.1293 10.7448 18.6788 10.7245 19.2893C10.6948 19.7033 10.8613 20.1 11.1693 20.3691C11.3063 20.4887 11.4914 20.5877 11.658 20.6389L13.8209 21.2721C13.9704 21.3083 14.1198 21.3446 14.2832 21.3303L21.2241 20.9853L30.7382 24.3966C31.5225 24.6734 33.2344 24.7867 34.3098 24.2811C34.8872 24.0001 35.1472 23.5989 35.2656 23.3254C35.5848 22.4418 35.2271 21.4695 34.2173 20.5873C33.7209 20.1536 33.1126 19.7791 32.6115 19.5927L15.2187 13.3508L13.1719 7.88674C13.0024 7.42446 12.5916 7.06557 12.1279 6.97458L11.0993 6.73565C10.6511 6.62684 10.1967 6.73247 9.81686 7.029C9.45263 7.30771 9.21132 7.75663 9.1832 8.20333L8.83654 13.3671ZM11.6918 8.51002L13.8521 14.2932C13.9439 14.4991 14.0995 14.6664 14.3002 14.7475L32.0105 21.1097C32.2781 21.2179 32.7324 21.4577 33.1432 21.8166C33.6224 22.2353 33.8216 22.6292 33.781 22.8137C33.5149 23.0839 32.0271 23.1978 31.2925 22.933L21.6446 19.4677C21.5451 19.4436 21.4454 19.4193 21.3474 19.4279L14.2913 19.7665L12.827 19.3354L15.0961 18.7417C15.4369 18.6625 15.6845 18.3446 15.7172 17.9963C15.7375 17.7312 15.6286 17.5104 15.4575 17.3609C15.389 17.3011 15.305 17.2591 15.221 17.2171L9.72941 15.2468C9.82745 15.2382 9.92396 15.1968 10.0189 15.1227C10.2415 14.9715 10.3785 14.7456 10.3832 14.4984L10.7643 8.32804L11.6918 8.51002Z" fill="#838794"/>
<path d="M34.249 28.125H5.7511C5.33137 28.125 5 28.4664 5 28.8988C5 29.3312 5.33137 29.6726 5.7511 29.6726H34.249C34.6687 29.6726 35 29.3312 35 28.8988C35 28.4664 34.6687 28.125 34.249 28.125Z" fill="#838794"/>
</svg>
