<svg width="82" height="85" viewBox="0 0 82 85" fill="none" xmlns="http://www.w3.org/2000/svg">
<path d="M36.9363 34.3035H36.4363V34.3193L36.4373 34.3351L36.9363 34.3035ZM45.0867 34.3035L45.5856 34.3354L45.5867 34.3195V34.3035H45.0867ZM39.6427 76.9947L39.1437 77.0263L39.6427 76.9947ZM44.4363 6.01943L43.9474 6.1243L44.4363 6.01943ZM43.9094 3.56329L43.4206 3.66816L43.9094 3.56329ZM37.4363 34.3035V13.1372H36.4363V34.3035H37.4363ZM38.6347 5.30189L39.2073 3.47371L38.253 3.17481L37.6804 5.00299L38.6347 5.30189ZM43.4206 3.66816L43.9474 6.1243L44.9252 5.91457L44.3983 3.45842L43.4206 3.66816ZM44.5867 12.1524V34.3035H45.5867V12.1524H44.5867ZM44.5877 34.2717L41.8625 76.9634L42.8604 77.0271L45.5856 34.3354L44.5877 34.2717ZM40.1417 76.963L37.4353 34.2719L36.4373 34.3351L39.1437 77.0263L40.1417 76.963ZM41.0021 77.7706C40.5471 77.7706 40.1705 77.4171 40.1417 76.963L39.1437 77.0263C39.2059 78.007 40.0194 78.7706 41.0021 78.7706V77.7706ZM43.9474 6.1243C44.3724 8.10553 44.5867 10.1261 44.5867 12.1524H45.5867C45.5867 10.0556 45.3649 7.96473 44.9252 5.91457L43.9474 6.1243ZM41.2883 1.9448C42.3165 1.9448 43.2049 2.6629 43.4206 3.66816L44.3983 3.45842C44.0838 1.99219 42.7879 0.944804 41.2883 0.944804V1.9448ZM39.2073 3.47371C39.4922 2.564 40.335 1.9448 41.2883 1.9448V0.944804C39.8979 0.944804 38.6686 1.84794 38.253 3.17481L39.2073 3.47371ZM41.8625 76.9634C41.8335 77.4173 41.4569 77.7706 41.0021 77.7706V78.7706C41.9845 78.7706 42.7979 78.0075 42.8604 77.0271L41.8625 76.9634ZM37.4363 13.1372C37.4363 10.4798 37.8404 7.83783 38.6347 5.30189L37.6804 5.00299C36.8558 7.63567 36.4363 10.3784 36.4363 13.1372H37.4363Z" fill="#838794"/>
<path d="M45.5348 9.80276C42.2904 6.68313 40.4233 6.53073 36.9364 9.80276L37.7335 6.20063C40.9592 4.08821 41.7583 4.19522 44.8376 6.20063L45.5348 9.80276Z" fill="#838794"/>
<path d="M35.7848 65.1005H34.8593C34.7273 65.1005 34.6107 65.0141 34.5723 64.8877L34.1082 63.3609C33.5923 61.6637 33.3301 59.8996 33.3301 58.1257V51.4387C33.3301 51.1079 33.491 50.7933 33.7762 50.6258C34.9227 49.9528 35.7405 49.9646 36.9259 50.6275C37.2232 50.7938 37.3944 51.116 37.3944 51.4567V57.9611C37.3944 59.8428 37.0993 61.7129 36.5199 63.5032L36.0702 64.8928C36.0302 65.0166 35.9149 65.1005 35.7848 65.1005Z" fill="white"/>
<path d="M36.0702 64.8928L36.5459 65.0468V65.0468L36.0702 64.8928ZM36.5199 63.5032L36.0442 63.3493L36.5199 63.5032ZM36.9259 50.6275L37.1699 50.1911V50.1911L36.9259 50.6275ZM33.7762 50.6258L34.0294 51.057L33.7762 50.6258ZM34.1082 63.3609L34.5866 63.2155L34.1082 63.3609ZM34.5723 64.8877L34.0939 65.0331H34.0939L34.5723 64.8877ZM34.8593 65.6005H35.7848V64.6005H34.8593V65.6005ZM36.5459 65.0468L36.9956 63.6572L36.0442 63.3493L35.5945 64.7389L36.5459 65.0468ZM37.8944 57.9611V51.4567H36.8944V57.9611H37.8944ZM37.1699 50.1911C36.5388 49.8382 35.9521 49.6278 35.3382 49.6257C34.7213 49.6236 34.1411 49.8318 33.5231 50.1946L34.0294 51.057C34.5578 50.7468 34.9597 50.6244 35.3347 50.6257C35.7127 50.627 36.1276 50.754 36.6818 51.0639L37.1699 50.1911ZM32.8301 51.4387V58.1257H33.8301V51.4387H32.8301ZM33.6298 63.5063L34.0939 65.0331L35.0507 64.7423L34.5866 63.2155L33.6298 63.5063ZM32.8301 58.1257C32.8301 59.9489 33.0995 61.762 33.6298 63.5063L34.5866 63.2155C34.085 61.5654 33.8301 59.8503 33.8301 58.1257H32.8301ZM33.5231 50.1946C33.0681 50.4618 32.8301 50.9511 32.8301 51.4387H33.8301C33.8301 51.2648 33.9139 51.1248 34.0294 51.057L33.5231 50.1946ZM37.8944 51.4567C37.8944 50.9533 37.6407 50.4544 37.1699 50.1911L36.6818 51.0639C36.8057 51.1332 36.8944 51.2787 36.8944 51.4567H37.8944ZM36.9956 63.6572C37.5911 61.8171 37.8944 59.8951 37.8944 57.9611H36.8944C36.8944 59.7906 36.6075 61.6087 36.0442 63.3493L36.9956 63.6572ZM35.7848 65.6005C36.1317 65.6005 36.4391 65.3768 36.5459 65.0468L35.5945 64.7389C35.6212 64.6564 35.6981 64.6005 35.7848 64.6005V65.6005ZM34.8593 64.6005C34.9474 64.6005 35.0251 64.658 35.0507 64.7423L34.0939 65.0331C34.1964 65.3701 34.5071 65.6005 34.8593 65.6005V64.6005Z" fill="#838794"/>
<path d="M47.073 65.0807H46.1476C46.0155 65.0807 45.899 64.9943 45.8605 64.8679L45.3964 63.3411C44.8805 61.6439 44.6183 59.8798 44.6183 58.1059V51.4189C44.6183 51.0882 44.7792 50.7735 45.0644 50.606C46.2109 49.933 47.0288 49.9449 48.2141 50.6078C48.5114 50.774 48.6826 51.0963 48.6826 51.4369V57.9413C48.6826 59.823 48.3875 61.6931 47.8082 63.4834L47.3585 64.873C47.3184 64.9968 47.2031 65.0807 47.073 65.0807Z" fill="white"/>
<path d="M47.3585 64.873L47.8342 65.027V65.027L47.3585 64.873ZM47.8082 63.4834L47.3325 63.3295L47.8082 63.4834ZM48.2141 50.6078L48.4582 50.1714V50.1714L48.2141 50.6078ZM45.0644 50.606L45.3176 51.0372L45.0644 50.606ZM45.3964 63.3411L45.8748 63.1957L45.3964 63.3411ZM45.8605 64.8679L45.3822 65.0134H45.3822L45.8605 64.8679ZM46.1476 65.5807H47.073V64.5807H46.1476V65.5807ZM47.8342 65.027L48.2839 63.6374L47.3325 63.3295L46.8828 64.7191L47.8342 65.027ZM49.1826 57.9413V51.4369H48.1826V57.9413H49.1826ZM48.4582 50.1714C47.8271 49.8184 47.2404 49.608 46.6264 49.6059C46.0095 49.6038 45.4293 49.812 44.8113 50.1749L45.3176 51.0372C45.846 50.727 46.248 50.6046 46.623 50.6059C47.0009 50.6072 47.4158 50.7342 47.97 51.0441L48.4582 50.1714ZM44.1183 51.4189V58.1059H45.1183V51.4189H44.1183ZM44.918 63.4865L45.3822 65.0134L46.3389 64.7225L45.8748 63.1957L44.918 63.4865ZM44.1183 58.1059C44.1183 59.9291 44.3878 61.7422 44.918 63.4865L45.8748 63.1957C45.3732 61.5457 45.1183 59.8305 45.1183 58.1059H44.1183ZM44.8113 50.1749C44.3563 50.442 44.1183 50.9313 44.1183 51.4189H45.1183C45.1183 51.245 45.2022 51.105 45.3176 51.0372L44.8113 50.1749ZM49.1826 51.4369C49.1826 50.9336 48.9289 50.4346 48.4582 50.1714L47.97 51.0441C48.0939 51.1134 48.1826 51.259 48.1826 51.4369H49.1826ZM48.2839 63.6374C48.8793 61.7973 49.1826 59.8753 49.1826 57.9413H48.1826C48.1826 59.7708 47.8957 61.5889 47.3325 63.3295L48.2839 63.6374ZM47.073 65.5807C47.42 65.5807 47.7274 65.3571 47.8342 65.027L46.8828 64.7191C46.9095 64.6366 46.9863 64.5807 47.073 64.5807V65.5807ZM46.1476 64.5807C46.2356 64.5807 46.3133 64.6383 46.3389 64.7225L45.3822 65.0134C45.4846 65.3503 45.7954 65.5807 46.1476 65.5807V64.5807Z" fill="#838794"/>
<path d="M39.1296 71.0034L39.6281 70.9648L39.5606 70.0933L38.8436 70.5933L39.1296 71.0034ZM39.679 78.0957L39.9037 78.5424L40.2034 78.3916L40.1775 78.0571L39.679 78.0957ZM27.2669 79.2755L27.5529 79.6857L27.2669 79.2755ZM28.2883 83.8259L28.0636 83.3793L28.2883 83.8259ZM27.3389 82.9326V80.0958H26.3389V82.9326H27.3389ZM27.5529 79.6857L39.4156 71.4135L38.8436 70.5933L26.9809 78.8654L27.5529 79.6857ZM38.6311 71.042L39.1805 78.1344L40.1775 78.0571L39.6281 70.9648L38.6311 71.042ZM39.4543 77.6491L28.0636 83.3793L28.513 84.2726L39.9037 78.5424L39.4543 77.6491ZM27.3389 80.0958C27.3389 79.9323 27.4188 79.7792 27.5529 79.6857L26.9809 78.8654C26.5787 79.1459 26.3389 79.6054 26.3389 80.0958H27.3389ZM26.3389 82.9326C26.3389 84.0493 27.5155 84.7744 28.513 84.2726L28.0636 83.3793C27.7311 83.5465 27.3389 83.3048 27.3389 82.9326H26.3389Z" fill="#838794"/>
<path d="M42.9321 71.0034L42.4336 70.9648L42.5011 70.0933L43.2181 70.5933L42.9321 71.0034ZM42.3828 78.0957L42.1581 78.5424L41.8583 78.3916L41.8843 78.0571L42.3828 78.0957ZM54.7948 79.2755L54.5088 79.6857L54.7948 79.2755ZM53.7734 83.8259L53.9981 83.3793L53.7734 83.8259ZM54.7228 82.9326V80.0958H55.7228V82.9326H54.7228ZM54.5088 79.6857L42.6461 71.4135L43.2181 70.5933L55.0808 78.8654L54.5088 79.6857ZM43.4306 71.042L42.8813 78.1344L41.8843 78.0571L42.4336 70.9648L43.4306 71.042ZM42.6075 77.6491L53.9981 83.3793L53.5487 84.2726L42.1581 78.5424L42.6075 77.6491ZM54.7228 80.0958C54.7228 79.9323 54.6429 79.7792 54.5088 79.6857L55.0808 78.8654C55.4831 79.1459 55.7228 79.6054 55.7228 80.0958H54.7228ZM55.7228 82.9326C55.7228 84.0493 54.5463 84.7744 53.5487 84.2726L53.9981 83.3793C54.3307 83.5465 54.7228 83.3048 54.7228 82.9326H55.7228Z" fill="#838794"/>
<path d="M36.8091 27.7617H37.3091V26.779L36.5147 27.3576L36.8091 27.7617ZM36.8091 34.0363H36.3091V34.0526L36.3101 34.0689L36.8091 34.0363ZM1.52058 53.4653L1.81496 53.8694L1.52058 53.4653ZM1.60934 55.9323V54.2736H0.609337V55.9323H1.60934ZM1.81496 53.8694L37.1034 28.1659L36.5147 27.3576L1.2262 53.0611L1.81496 53.8694ZM36.3091 27.7617V34.0363H37.3091V27.7617H36.3091ZM36.3101 34.0689L37.0774 45.7969L38.0753 45.7316L37.308 34.0036L36.3101 34.0689ZM18.995 48.2836C13.7551 50.3376 8.91529 52.8241 2.35273 56.3707L2.82817 57.2505C9.38691 53.7059 14.181 51.2447 19.3599 49.2146L18.995 48.2836ZM1.60934 54.2736C1.60934 54.1137 1.68576 53.9635 1.81496 53.8694L1.2262 53.0611C0.838598 53.3434 0.609337 53.7941 0.609337 54.2736H1.60934ZM37.5763 45.2643C31.2774 45.2643 24.9084 45.9656 18.995 48.2836L19.3599 49.2146C25.1131 46.9594 31.3443 46.2643 37.5763 46.2643V45.2643ZM0.609337 55.9323C0.609337 57.0732 1.83161 57.789 2.82817 57.2505L2.35273 56.3707C2.01531 56.5531 1.60934 56.3077 1.60934 55.9323H0.609337Z" fill="#838794"/>
<path d="M45.1909 27.7617H44.6909V26.779L45.4853 27.3576L45.1909 27.7617ZM45.1909 34.0363H45.6909V34.0526L45.6899 34.0689L45.1909 34.0363ZM80.4794 53.4653L80.185 53.8694L80.4794 53.4653ZM80.3907 55.9323V54.2736H81.3907V55.9323H80.3907ZM80.185 53.8694L44.8966 28.1659L45.4853 27.3576L80.7738 53.0611L80.185 53.8694ZM45.6909 27.7617V34.0363H44.6909V27.7617H45.6909ZM45.6899 34.0689L44.9226 45.7969L43.9247 45.7316L44.692 34.0036L45.6899 34.0689ZM63.005 48.2836C68.2449 50.3376 73.0847 52.8241 79.6473 56.3707L79.1718 57.2505C72.6131 53.7059 67.819 51.2447 62.6401 49.2146L63.005 48.2836ZM80.3907 54.2736C80.3907 54.1137 80.3142 53.9635 80.185 53.8694L80.7738 53.0611C81.1614 53.3434 81.3907 53.7941 81.3907 54.2736H80.3907ZM44.4237 45.2643C50.7226 45.2643 57.0916 45.9656 63.005 48.2836L62.6401 49.2146C56.8868 46.9594 50.6557 46.2643 44.4237 46.2643V45.2643ZM81.3907 55.9323C81.3907 57.0732 80.1684 57.789 79.1718 57.2505L79.6473 56.3707C79.9847 56.5531 80.3907 56.3077 80.3907 55.9323H81.3907Z" fill="#838794"/>
</svg>
