<svg width="64" height="52" viewBox="0 0 64 52" fill="none" xmlns="http://www.w3.org/2000/svg">
<path d="M35.7572 26.592L36.2543 26.6462L36.2565 26.6256L36.2571 26.6048L35.7572 26.592ZM28.0768 26.592L27.5768 26.5998L27.577 26.6148L27.5782 26.6297L28.0768 26.592ZM27.9049 15.5642L27.4059 15.5333L27.4047 15.5526L27.405 15.572L27.9049 15.5642ZM36.0396 15.5642L36.5394 15.577L36.5395 15.5738L36.0396 15.5642ZM34.0512 46.8516L36.2543 26.6462L35.2602 26.5378L33.0571 46.7432L34.0512 46.8516ZM34.5882 1.64427C33.8603 0.881716 33.0833 0.432194 32.2204 0.519405C31.3831 0.604023 30.6321 1.18137 29.911 2.03477L30.6748 2.6802C31.3498 1.88137 31.8822 1.55868 32.3209 1.51434C32.734 1.47259 33.2258 1.66519 33.8649 2.33475L34.5882 1.64427ZM27.5782 26.6297L29.0984 46.7692L30.0956 46.6939L28.5753 26.5544L27.5782 26.6297ZM27.8744 7.96764L27.4059 15.5333L28.404 15.5951L28.8725 8.02946L27.8744 7.96764ZM27.405 15.572L27.5768 26.5998L28.5767 26.5843L28.4048 15.5564L27.405 15.572ZM36.2571 26.6048L36.5394 15.577L35.5397 15.5514L35.2574 26.5792L36.2571 26.6048ZM36.5395 15.5738L36.6761 8.4869L35.6763 8.46762L35.5397 15.5545L36.5395 15.5738ZM29.911 2.03477C28.4993 3.70546 28.0028 5.89577 27.8744 7.96764L28.8725 8.02946C28.9953 6.0477 29.4652 4.1117 30.6748 2.6802L29.911 2.03477ZM33.8649 2.33475C35.3341 3.87387 35.7206 6.17265 35.6763 8.46762L36.6761 8.4869C36.7218 6.11947 36.3389 3.47833 34.5882 1.64427L33.8649 2.33475ZM31.5786 49.0692C32.848 49.0692 33.9136 48.1134 34.0512 46.8516L33.0571 46.7432C32.9749 47.4977 32.3376 48.0692 31.5786 48.0692V49.0692ZM31.5786 48.0692C30.8007 48.0692 30.1541 47.4697 30.0956 46.6939L29.0984 46.7692C29.1964 48.0666 30.2776 49.0692 31.5786 49.0692V48.0692Z" fill="#838794"/>
<path d="M29.0735 42.7747L29.57 42.7154L29.4902 42.0476L28.8737 42.3163L29.0735 42.7747ZM29.6495 47.5985L29.7894 48.0785L30.1963 47.9599L30.146 47.5392L29.6495 47.5985ZM19.2851 50.6186L19.1452 50.1386L19.2851 50.6186ZM18.6058 47.3368L18.8055 47.7951L18.6058 47.3368ZM28.8737 42.3163L18.406 46.8784L18.8055 47.7951L29.2732 43.233L28.8737 42.3163ZM17.5053 48.2535V49.6586H18.5053V48.2535H17.5053ZM19.425 51.0987L29.7894 48.0785L29.5097 47.1184L19.1452 50.1386L19.425 51.0987ZM30.146 47.5392L29.57 42.7154L28.577 42.8339L29.1531 47.6578L30.146 47.5392ZM17.5053 49.6586C17.5053 50.6584 18.465 51.3784 19.425 51.0987L19.1452 50.1386C18.8252 50.2318 18.5053 49.9919 18.5053 49.6586H17.5053ZM18.406 46.8784C17.859 47.1168 17.5053 47.6568 17.5053 48.2535H18.5053C18.5053 48.0546 18.6232 47.8746 18.8055 47.7951L18.406 46.8784Z" fill="#838794"/>
<path d="M34.0934 42.7747L33.5969 42.7154L33.6766 42.0476L34.2931 42.3163L34.0934 42.7747ZM33.5173 47.5985L33.3774 48.0785L32.9706 47.9599L33.0208 47.5392L33.5173 47.5985ZM43.8818 50.6186L44.0216 50.1386L43.8818 50.6186ZM44.5611 47.3368L44.3613 47.7951L44.5611 47.3368ZM34.2931 42.3163L44.7608 46.8784L44.3613 47.7951L33.8936 43.233L34.2931 42.3163ZM45.6615 48.2535V49.6586H44.6615V48.2535H45.6615ZM43.7419 51.0987L33.3774 48.0785L33.6572 47.1184L44.0216 50.1386L43.7419 51.0987ZM33.0208 47.5392L33.5969 42.7154L34.5898 42.8339L34.0138 47.6578L33.0208 47.5392ZM45.6615 49.6586C45.6615 50.6584 44.7018 51.3784 43.7419 51.0987L44.0216 50.1386C44.3416 50.2318 44.6615 49.9919 44.6615 49.6586H45.6615ZM44.7608 46.8784C45.3078 47.1168 45.6615 47.6568 45.6615 48.2535H44.6615C44.6615 48.0546 44.5436 47.8746 44.3613 47.7951L44.7608 46.8784Z" fill="#838794"/>
<path d="M27.9828 25.6855L28.0037 26.1851L28.4889 26.1649L28.4828 25.6793L27.9828 25.6855ZM27.8763 17.1557L28.3763 17.1495L28.3685 16.5295L27.7643 16.6684L27.8763 17.1557ZM1.79594 23.1525L1.90798 23.6397L1.79594 23.1525ZM0.52002 24.127V25.7672H1.52002V24.127H0.52002ZM2.08251 27.2659L28.0037 26.1851L27.962 25.186L2.04085 26.2667L2.08251 27.2659ZM28.4828 25.6793L28.3763 17.1495L27.3764 17.162L27.4829 25.6918L28.4828 25.6793ZM27.7643 16.6684L1.68389 22.6652L1.90798 23.6397L27.9884 17.643L27.7643 16.6684ZM0.52002 25.7672C0.52002 26.6201 1.2303 27.3014 2.08251 27.2659L2.04085 26.2667C1.75678 26.2786 1.52002 26.0515 1.52002 25.7672H0.52002ZM1.52002 24.127C1.52002 23.894 1.68093 23.6919 1.90798 23.6397L1.68389 22.6652C1.00274 22.8218 0.52002 23.4281 0.52002 24.127H1.52002Z" fill="#838794"/>
<path d="M36.0172 25.6855L35.9963 26.1851L35.5111 26.1649L35.5172 25.6793L36.0172 25.6855ZM36.1237 17.1557L35.6237 17.1495L35.6315 16.5295L36.2357 16.6684L36.1237 17.1557ZM62.2041 23.1525L62.092 23.6397L62.2041 23.1525ZM63.48 24.127V25.7672H62.48V24.127H63.48ZM61.9175 27.2659L35.9963 26.1851L36.038 25.186L61.9592 26.2667L61.9175 27.2659ZM35.5172 25.6793L35.6237 17.1495L36.6236 17.162L36.5171 25.6918L35.5172 25.6793ZM36.2357 16.6684L62.3161 22.6652L62.092 23.6397L36.0116 17.643L36.2357 16.6684ZM63.48 25.7672C63.48 26.6201 62.7697 27.3014 61.9175 27.2659L61.9592 26.2667C62.2432 26.2786 62.48 26.0515 62.48 25.7672H63.48ZM62.48 24.127C62.48 23.894 62.3191 23.6919 62.092 23.6397L62.3161 22.6652C62.9973 22.8218 63.48 23.4281 63.48 24.127H62.48Z" fill="#838794"/>
<path d="M36.017 9.60296C32.9809 7.0825 31.3035 7.26775 28.3426 9.60296V13.7366C31.3776 11.0283 33.0565 10.8478 36.017 13.7366V9.60296Z" fill="#838794"/>
<path d="M18.9187 27.2391V14.1128H23.5679V27.315C23.5679 28.5546 23.2122 29.9162 22.1123 30.4879C21.565 30.7724 21.0461 30.782 20.4665 30.4967C19.3135 29.9292 18.9187 28.5241 18.9187 27.2391Z" fill="white"/>
<path d="M18.9187 14.1128V13.6128H18.4187V14.1128H18.9187ZM20.4665 30.4967L20.2457 30.9453H20.2457L20.4665 30.4967ZM22.1123 30.4879L21.8817 30.0443L21.8817 30.0443L22.1123 30.4879ZM23.5679 14.1128H24.0679V13.6128H23.5679V14.1128ZM18.4187 14.1128V27.2391H19.4187V14.1128H18.4187ZM20.2457 30.9453C20.5919 31.1157 20.9433 31.209 21.3058 31.206C21.6686 31.2029 22.0123 31.1034 22.3429 30.9315L21.8817 30.0443C21.6651 30.1569 21.4756 30.2045 21.2973 30.206C21.1185 30.2075 20.9207 30.163 20.6873 30.0481L20.2457 30.9453ZM24.0679 27.315V14.1128H23.0679V27.315H24.0679ZM23.5679 13.6128H18.9187V14.6128H23.5679V13.6128ZM22.3429 30.9316C23.7068 30.2225 24.0679 28.595 24.0679 27.315H23.0679C23.0679 28.5142 22.7175 29.6098 21.8817 30.0443L22.3429 30.9316ZM18.4187 27.2391C18.4187 28.5715 18.823 30.2451 20.2457 30.9453L20.6873 30.0481C19.8041 29.6134 19.4187 28.4767 19.4187 27.2391H18.4187Z" fill="#838794"/>
<path d="M40.4882 27.2391V14.1128H45.1375V27.315C45.1375 28.5546 44.7817 29.9162 43.6818 30.4879C43.1346 30.7724 42.6156 30.782 42.036 30.4967C40.8831 29.9292 40.4882 28.5241 40.4882 27.2391Z" fill="white"/>
<path d="M40.4882 14.1128V13.6128H39.9882V14.1128H40.4882ZM42.036 30.4967L41.8152 30.9453H41.8152L42.036 30.4967ZM43.6818 30.4879L43.4512 30.0443L43.4512 30.0443L43.6818 30.4879ZM45.1375 14.1128H45.6375V13.6128H45.1375V14.1128ZM39.9882 14.1128V27.2391H40.9882V14.1128H39.9882ZM41.8152 30.9453C42.1614 31.1157 42.5128 31.209 42.8753 31.206C43.2381 31.2029 43.5818 31.1034 43.9124 30.9315L43.4512 30.0443C43.2346 30.1569 43.0452 30.2045 42.8668 30.206C42.688 30.2075 42.4902 30.163 42.2568 30.0481L41.8152 30.9453ZM45.6375 27.315V14.1128H44.6375V27.315H45.6375ZM45.1375 13.6128H40.4882V14.6128H45.1375V13.6128ZM43.9124 30.9316C45.2764 30.2225 45.6375 28.595 45.6375 27.315H44.6375C44.6375 28.5142 44.287 29.6098 43.4512 30.0443L43.9124 30.9316ZM39.9882 27.2391C39.9882 28.5715 40.3925 30.2451 41.8152 30.9453L42.2568 30.0481C41.3736 29.6134 40.9882 28.4767 40.9882 27.2391H39.9882Z" fill="#838794"/>
<path d="M17.0281 12.1646H25.4585" stroke="#838794"/>
<path d="M38.5977 12.1646H47.0281" stroke="#838794"/>
</svg>
