<svg width="103" height="83" viewBox="0 0 103 83" fill="none" xmlns="http://www.w3.org/2000/svg">
<path d="M49.7654 79.0379L50.2563 78.9429L49.7654 79.0379ZM53.1488 79.0419L52.6582 78.9457L53.1488 79.0419ZM55.9821 35.5587H55.4821H55.9821ZM54.9991 5.56945L55.4861 5.45603L54.9991 5.56945ZM49.1187 3.4165L48.6453 3.25551L49.1187 3.4165ZM48.6977 4.65419L48.2244 4.4932L48.6977 4.65419ZM47.4511 35.5577V15.2143H46.4511V35.5577H47.4511ZM49.1711 4.81518L49.592 3.57749L48.6453 3.25551L48.2244 4.4932L49.1711 4.81518ZM54.0381 3.64753L54.5121 5.68287L55.4861 5.45603L55.012 3.42069L54.0381 3.64753ZM55.4821 14.1231V35.5587H56.4821V14.1231H55.4821ZM51.1323 1.86221L51.2045 1.82862L50.7828 0.921865L50.7106 0.955458L51.1323 1.86221ZM50.2563 78.9429C49.4976 75.0254 47.4513 63.8967 47.4511 57.9379L46.4511 57.9379C46.4513 64.0126 48.5214 75.2442 49.2745 79.133L50.2563 78.9429ZM47.4511 57.9379C47.4509 50.5732 47.4511 35.5807 47.4511 35.5587L46.4511 35.5587C46.4511 35.5807 46.4509 50.5732 46.4511 57.9379L47.4511 57.9379ZM55.9821 35.5587C55.4821 35.5587 55.4821 35.5587 55.4821 35.5589C55.4821 35.559 55.4821 35.5591 55.4821 35.5594C55.4821 35.5596 55.4821 35.5599 55.4821 35.5602C55.4821 35.5606 55.4821 35.561 55.4821 35.5614C55.4821 35.5619 55.4821 35.5624 55.4821 35.5629C55.4821 35.5635 55.4821 35.5641 55.4821 35.5648C55.4821 35.5655 55.4821 35.5662 55.4821 35.567C55.4821 35.5678 55.4821 35.5686 55.4821 35.5695C55.4821 35.5815 55.4821 35.5828 55.4821 35.6017C55.4821 35.6207 55.4821 35.6289 55.4821 35.6548C55.4821 35.6857 55.4821 35.6563 55.4821 35.689C55.4821 35.692 55.4821 35.6951 55.4821 35.6983C55.4821 35.7014 55.4821 35.7047 55.4821 35.7079C55.4821 35.7112 55.4821 35.7145 55.4821 35.7179C55.4821 35.7213 55.4821 35.7247 55.4821 35.7281C55.4821 35.7837 55.4821 35.8525 55.4821 35.9338C55.4821 36.0151 55.4821 36.109 55.4821 36.2146C55.4821 36.2213 55.4821 36.2279 55.4821 36.2346C55.4821 36.2413 55.4821 36.248 55.4821 36.2548C55.4821 36.2616 55.4821 36.2685 55.4821 36.2753C55.4821 36.2822 55.4821 36.2892 55.4821 36.2961C55.4821 36.3338 55.4821 36.3428 55.4821 36.382C55.4821 36.4406 55.4821 36.5022 55.4821 36.5665C55.4821 36.5987 55.4821 36.6316 55.4821 36.6651C55.4821 36.6875 55.4821 36.6933 55.4821 36.716C55.4821 36.7245 55.4821 36.7331 55.4821 36.7418C55.4821 36.7504 55.4821 36.7591 55.4821 36.7678C55.4821 36.7766 55.4821 36.7853 55.4821 36.7942C55.4821 36.803 55.4821 36.8118 55.4821 36.8207C55.4821 36.8682 55.4821 36.8268 55.4821 36.8746C55.4821 36.8837 55.4821 36.8928 55.4821 36.9019C55.4821 36.9111 55.4821 36.9203 55.4821 36.9295C55.4821 36.9387 55.4821 36.948 55.4821 36.9573C55.4821 36.9666 55.4821 36.976 55.4821 36.9854C55.4821 36.9948 55.4821 37.0042 55.4821 37.0137C55.4821 37.0232 55.4821 37.0327 55.4821 37.0422C55.4821 37.0518 55.4821 37.0614 55.4821 37.071C55.4821 37.0807 55.4821 37.0904 55.4821 37.1001C55.4821 37.1524 55.4821 37.1062 55.4821 37.1589C55.4821 37.1688 55.4821 37.1787 55.4821 37.1886C55.4821 37.1986 55.4821 37.2086 55.4821 37.2186C55.4821 37.2989 55.4821 37.3818 55.4821 37.4671C55.4821 37.5244 55.4821 37.4738 55.4821 37.5315C55.4821 37.5423 55.4821 37.5532 55.4821 37.5641C55.4821 37.575 55.4821 37.5859 55.4821 37.5968C55.4821 37.6078 55.4821 37.6188 55.4821 37.6298C55.4821 37.6409 55.4821 37.652 55.4821 37.6631C55.4821 37.6742 55.4821 37.6853 55.4821 37.6965C55.4821 37.7077 55.4821 37.719 55.4821 37.7302C55.4821 37.7908 55.4821 37.7374 55.4821 37.7982C55.4821 37.8288 55.4821 37.8363 55.4821 37.8671C55.4821 37.8979 55.4821 37.9058 55.4821 37.9369C55.4821 37.9486 55.4821 37.9603 55.4821 37.9721C55.4821 37.9839 55.4821 37.9957 55.4821 38.0075C55.4821 39.5621 55.4821 41.5835 55.4821 43.9539C55.4821 48.5945 55.4821 54.2347 55.4821 57.9379H56.4821C56.4821 54.2347 56.4821 48.5945 56.4821 43.9539C56.4821 43.9356 56.4821 43.9174 56.4821 43.8993C56.4821 43.8811 56.4821 43.8629 56.4821 43.8447C56.4821 43.8266 56.4821 43.8084 56.4821 43.7903C56.4821 43.7722 56.4821 43.7541 56.4821 43.736C56.4821 43.7179 56.4821 43.6998 56.4821 43.6817C56.4821 43.6636 56.4821 43.6456 56.4821 43.6275C56.4821 43.6095 56.4821 43.5915 56.4821 43.5735C56.4821 43.5555 56.4821 43.5375 56.4821 43.5195C56.4821 43.5015 56.4821 43.4835 56.4821 43.4656C56.4821 43.4477 56.4821 43.4297 56.4821 43.4118C56.4821 43.3641 56.4821 43.3521 56.4821 43.3045C56.4821 43.2331 56.4821 43.162 56.4821 43.0911C56.4821 42.8076 56.4821 42.5284 56.4821 42.2542C56.4821 41.7059 56.4821 41.1776 56.4821 40.6748C56.4821 40.6119 56.4821 40.5495 56.4821 40.4874C56.4821 40.4461 56.4821 40.4358 56.4821 40.3947C56.4821 40.3792 56.4821 40.3639 56.4821 40.3485C56.4821 40.3332 56.4821 40.3178 56.4821 40.3025C56.4821 40.1801 56.4821 40.0593 56.4821 39.9403C56.4821 39.7024 56.4821 39.4714 56.4821 39.2483C56.4821 39.0251 56.4821 38.8096 56.4821 38.6026C56.4821 38.5897 56.4821 38.5768 56.4821 38.5639C56.4821 38.551 56.4821 38.5382 56.4821 38.5254C56.4821 38.5126 56.4821 38.4998 56.4821 38.4871C56.4821 38.4743 56.4821 38.4616 56.4821 38.4489C56.4821 38.4363 56.4821 38.4236 56.4821 38.411C56.4821 38.3984 56.4821 38.3859 56.4821 38.3733C56.4821 38.3608 56.4821 38.3483 56.4821 38.3358C56.4821 38.3233 56.4821 38.3109 56.4821 38.2985C56.4821 38.2861 56.4821 38.2737 56.4821 38.2614C56.4821 38.2491 56.4821 38.2368 56.4821 38.2245C56.4821 38.1919 56.4821 38.1837 56.4821 38.1513C56.4821 38.119 56.4821 38.1111 56.4821 38.079C56.4821 38.067 56.4821 38.0551 56.4821 38.0432C56.4821 38.0312 56.4821 38.0194 56.4821 38.0075C56.4821 37.9128 56.4821 37.8203 56.4821 37.7302C56.4821 37.719 56.4821 37.7077 56.4821 37.6965C56.4821 37.6853 56.4821 37.6742 56.4821 37.6631C56.4821 37.652 56.4821 37.6409 56.4821 37.6298C56.4821 37.6188 56.4821 37.6078 56.4821 37.5968C56.4821 37.5859 56.4821 37.575 56.4821 37.5641C56.4821 37.5532 56.4821 37.5423 56.4821 37.5315C56.4821 37.4738 56.4821 37.5244 56.4821 37.4671C56.4821 37.4107 56.4821 37.4596 56.4821 37.4036C56.4821 37.3757 56.4821 37.3686 56.4821 37.341C56.4821 37.3134 56.4821 37.3066 56.4821 37.2793C56.4821 37.2691 56.4821 37.259 56.4821 37.2489C56.4821 37.2387 56.4821 37.2287 56.4821 37.2186C56.4821 37.2086 56.4821 37.1986 56.4821 37.1886C56.4821 37.1787 56.4821 37.1688 56.4821 37.1589C56.4821 37.1062 56.4821 37.1524 56.4821 37.1001C56.4821 37.0904 56.4821 37.0807 56.4821 37.071C56.4821 37.0614 56.4821 37.0518 56.4821 37.0422C56.4821 37.0327 56.4821 37.0232 56.4821 37.0137C56.4821 37.0042 56.4821 36.9948 56.4821 36.9854C56.4821 36.976 56.4821 36.9666 56.4821 36.9573C56.4821 36.948 56.4821 36.9387 56.4821 36.9295C56.4821 36.9203 56.4821 36.9111 56.4821 36.9019C56.4821 36.8928 56.4821 36.8837 56.4821 36.8746C56.4821 36.8268 56.4821 36.8682 56.4821 36.8207C56.4821 36.8118 56.4821 36.803 56.4821 36.7942C56.4821 36.7853 56.4821 36.7766 56.4821 36.7678C56.4821 36.6726 56.4821 36.6563 56.4821 36.5665C56.4821 36.5022 56.4821 36.4406 56.4821 36.382C56.4821 36.3428 56.4821 36.3338 56.4821 36.2961C56.4821 36.2595 56.4821 36.291 56.4821 36.2548C56.4821 36.248 56.4821 36.2413 56.4821 36.2346C56.4821 36.2279 56.4821 36.2213 56.4821 36.2146C56.4821 36.109 56.4821 36.0151 56.4821 35.9338C56.4821 35.8822 56.4821 35.9252 56.4821 35.8752C56.4821 35.8507 56.4821 35.8442 56.4821 35.8213C56.4821 35.7985 56.4821 35.7935 56.4821 35.7723C56.4821 35.7523 56.4821 35.7692 56.4821 35.7496C56.4821 35.7459 56.4821 35.7423 56.4821 35.7387C56.4821 35.7351 56.4821 35.7316 56.4821 35.7281C56.4821 35.7247 56.4821 35.7213 56.4821 35.7179C56.4821 35.7145 56.4821 35.7112 56.4821 35.7079C56.4821 35.7047 56.4821 35.7014 56.4821 35.6983C56.4821 35.6951 56.4821 35.692 56.4821 35.689C56.4821 35.6563 56.4821 35.6857 56.4821 35.6548C56.4821 35.6289 56.4821 35.6207 56.4821 35.6017C56.4821 35.5828 56.4821 35.5815 56.4821 35.5695C56.4821 35.5686 56.4821 35.5678 56.4821 35.567C56.4821 35.5662 56.4821 35.5655 56.4821 35.5648C56.4821 35.5641 56.4821 35.5635 56.4821 35.5629C56.4821 35.5624 56.4821 35.5619 56.4821 35.5614C56.4821 35.561 56.4821 35.5606 56.4821 35.5602C56.4821 35.5599 56.4821 35.5596 56.4821 35.5594C56.4821 35.5591 56.4821 35.559 56.4821 35.5589C56.4821 35.5587 56.4821 35.5587 55.9821 35.5587ZM55.4821 57.9379C55.4821 63.9615 53.4225 75.0439 52.6582 78.9457L53.6395 79.138C54.3984 75.264 56.4821 64.0783 56.4821 57.9379H55.4821ZM51.2045 1.82862C51.6344 1.6287 52.1306 1.6287 52.5606 1.8286L52.9822 0.921838C52.2849 0.597616 51.4801 0.597626 50.7828 0.921865L51.2045 1.82862ZM51.4576 79.9256C50.8682 79.9256 50.367 79.5146 50.2563 78.9429L49.2745 79.133C49.4776 80.1819 50.3964 80.9256 51.4576 80.9256V79.9256ZM51.4576 80.9256C52.5169 80.9256 53.4345 80.1845 53.6395 79.138L52.6582 78.9457C52.5464 79.516 52.0459 79.9256 51.4576 79.9256V80.9256ZM56.4821 35.5587C56.4821 35.5587 56.4821 35.5587 56.4821 35.5587C56.4821 35.5587 55.9821 35.5587 55.4821 35.5587C55.4821 35.5587 55.4821 35.5587 55.4821 35.5587C55.4821 35.5587 55.4821 35.5587 55.9821 35.5587C56.4821 35.5587 56.4821 35.5587 56.4821 35.5587C56.4821 35.5587 56.4821 35.5587 56.4821 35.5587C55.9821 35.5587 55.4821 35.5587 55.4821 35.5587C55.4821 35.5587 55.4821 35.5587 55.4821 35.5587H56.4821ZM54.5121 5.68287C55.1566 8.45002 55.4821 11.2819 55.4821 14.1231H56.4821C56.4821 11.2055 56.1479 8.29755 55.4861 5.45603L54.5121 5.68287ZM55.012 3.42069C54.7556 2.31994 54.007 1.39837 52.9822 0.921838L52.5606 1.8286C53.3065 2.17548 53.8514 2.84629 54.0381 3.64753L55.012 3.42069ZM49.592 3.57749C49.8498 2.81949 50.4063 2.19981 51.1323 1.86221L50.7106 0.955458C49.7371 1.40815 48.991 2.23909 48.6453 3.25551L49.592 3.57749ZM47.4511 15.2143C47.4511 11.6771 48.0322 8.16398 49.1711 4.81518L48.2244 4.4932C47.0502 7.94568 46.4511 11.5676 46.4511 15.2143H47.4511ZM46.4511 35.5577C46.4511 35.5584 46.4511 35.558 46.4511 35.5587L47.4511 35.5587C47.4511 35.558 47.4511 35.5583 47.4511 35.5577H46.4511Z" fill="#838794"/>
<path d="M33.4732 45.181H32.5574C32.4251 45.181 32.3084 45.0944 32.2702 44.9678L31.8049 43.427C31.2951 41.7393 31.0361 39.9858 31.0361 38.2228V31.5173C31.0361 31.1876 31.196 30.8738 31.4798 30.7061C32.6184 30.0334 33.4309 30.0453 34.6081 30.7078C34.9041 30.8743 35.0742 31.1957 35.0742 31.5353V38.0591C35.0742 39.9294 34.7827 41.7883 34.2102 43.5688L33.7588 44.9728C33.7189 45.0969 33.6035 45.181 33.4732 45.181Z" fill="white"/>
<path d="M33.7588 44.9728L33.2828 44.8198L33.7588 44.9728ZM34.2102 43.5688L34.6862 43.7219L34.2102 43.5688ZM34.6081 30.7078L34.3629 31.1435L34.6081 30.7078ZM31.4798 30.7061L31.7341 31.1366L31.4798 30.7061ZM31.8049 43.427L32.2835 43.2825L31.8049 43.427ZM32.2702 44.9678L31.7915 45.1123H31.7915L32.2702 44.9678ZM32.5574 45.681H33.4732V44.681H32.5574V45.681ZM34.2348 45.1259L34.6862 43.7219L33.7342 43.4158L33.2828 44.8198L34.2348 45.1259ZM35.5742 38.0591V31.5353H34.5742V38.0591H35.5742ZM34.8533 30.272C34.2263 29.9192 33.6426 29.7083 33.0312 29.7063C32.4169 29.7042 31.8396 29.9128 31.2255 30.2757L31.7341 31.1366C32.2587 30.8267 32.6569 30.705 33.0278 30.7063C33.4016 30.7075 33.8127 30.8339 34.3629 31.1435L34.8533 30.272ZM30.5361 31.5173V38.2228H31.5361V31.5173H30.5361ZM31.3262 43.5716L31.7915 45.1123L32.7488 44.8232L32.2835 43.2825L31.3262 43.5716ZM30.5361 38.2228C30.5361 40.0348 30.8023 41.837 31.3262 43.5716L32.2835 43.2825C31.7879 41.6416 31.5361 39.9369 31.5361 38.2228H30.5361ZM31.2255 30.2757C30.7725 30.5433 30.5361 31.0313 30.5361 31.5173H31.5361C31.5361 31.344 31.6194 31.2044 31.7341 31.1366L31.2255 30.2757ZM35.5742 31.5353C35.5742 31.0336 35.3221 30.5358 34.8533 30.272L34.3629 31.1435C34.486 31.2128 34.5742 31.3579 34.5742 31.5353H35.5742ZM34.6862 43.7219C35.2746 41.8919 35.5742 39.9814 35.5742 38.0591H34.5742C34.5742 39.8775 34.2908 41.6847 33.7342 43.4158L34.6862 43.7219ZM33.4732 45.681C33.8207 45.681 34.1284 45.4567 34.2348 45.1259L33.2828 44.8198C33.3094 44.7371 33.3863 44.681 33.4732 44.681V45.681ZM32.5574 44.681C32.6456 44.681 32.7233 44.7388 32.7488 44.8232L31.7915 45.1123C31.8935 45.45 32.2046 45.681 32.5574 45.681V44.681Z" fill="#838794"/>
<path d="M69.4599 45.181H70.3757C70.508 45.181 70.6246 45.0944 70.6629 44.9678L71.1282 43.427C71.638 41.7393 71.897 39.9858 71.897 38.2228V31.5173C71.897 31.1876 71.7371 30.8738 71.4533 30.7061C70.3146 30.0334 69.5022 30.0453 68.325 30.7078C68.029 30.8743 67.8589 31.1957 67.8589 31.5353V38.0591C67.8589 39.9294 68.1504 41.7883 68.7229 43.5688L69.1743 44.9728C69.2142 45.0969 69.3296 45.181 69.4599 45.181Z" fill="white"/>
<path d="M69.1743 44.9728L69.6503 44.8198L69.1743 44.9728ZM68.7229 43.5688L68.2469 43.7219L68.7229 43.5688ZM68.325 30.7078L68.5702 31.1435L68.325 30.7078ZM71.4533 30.7061L71.1989 31.1366L71.4533 30.7061ZM71.1282 43.427L70.6496 43.2825L71.1282 43.427ZM70.6629 44.9678L71.1415 45.1123H71.1415L70.6629 44.9678ZM70.3757 45.681H69.4599V44.681H70.3757V45.681ZM68.6983 45.1259L68.2469 43.7219L69.1989 43.4158L69.6503 44.8198L68.6983 45.1259ZM67.3589 38.0591V31.5353H68.3589V38.0591H67.3589ZM68.0797 30.272C68.7068 29.9192 69.2905 29.7083 69.9019 29.7063C70.5162 29.7042 71.0935 29.9128 71.7076 30.2757L71.1989 31.1366C70.6744 30.8267 70.2762 30.705 69.9053 30.7063C69.5315 30.7075 69.1203 30.8339 68.5702 31.1435L68.0797 30.272ZM72.397 31.5173V38.2228H71.397V31.5173H72.397ZM71.6069 43.5716L71.1415 45.1123L70.1842 44.8232L70.6496 43.2825L71.6069 43.5716ZM72.397 38.2228C72.397 40.0348 72.1308 41.837 71.6069 43.5716L70.6496 43.2825C71.1452 41.6416 71.397 39.9369 71.397 38.2228H72.397ZM71.7076 30.2757C72.1606 30.5433 72.397 31.0313 72.397 31.5173H71.397C71.397 31.344 71.3136 31.2044 71.1989 31.1366L71.7076 30.2757ZM67.3589 31.5353C67.3589 31.0336 67.6109 30.5358 68.0797 30.272L68.5702 31.1435C68.4471 31.2128 68.3589 31.3579 68.3589 31.5353H67.3589ZM68.2469 43.7219C67.6585 41.8919 67.3589 39.9814 67.3589 38.0591H68.3589C68.3589 39.8775 68.6423 41.6847 69.1989 43.4158L68.2469 43.7219ZM69.4599 45.681C69.1124 45.681 68.8047 45.4567 68.6983 45.1259L69.6503 44.8198C69.6237 44.7371 69.5468 44.681 69.4599 44.681V45.681ZM70.3757 44.681C70.2875 44.681 70.2097 44.7388 70.1842 44.8232L71.1415 45.1123C71.0396 45.45 70.7284 45.681 70.3757 45.681V44.681Z" fill="#838794"/>
<path d="M55.3178 6.22086C52.4996 4.75745 50.8779 4.68596 47.8491 6.22086L48.5415 4.53111C51.3434 3.54017 52.0375 3.59037 54.7122 4.53111L55.3178 6.22086Z" fill="#838794"/>
<path d="M48.2492 70.7981L48.7416 70.7111L48.6253 70.053L48.0268 70.3503L48.2492 70.7981ZM49.7384 79.2223L49.8458 79.7106L50.3142 79.6076L50.2307 79.1352L49.7384 79.2223ZM35.7851 76.9891L35.5627 76.5413L35.7851 76.9891ZM35.73 81.1694V77.8847H34.73V81.1694H35.73ZM36.0076 77.4369L48.4716 71.2459L48.0268 70.3503L35.5627 76.5413L36.0076 77.4369ZM47.7568 70.8851L49.246 79.3093L50.2307 79.1352L48.7416 70.7111L47.7568 70.8851ZM49.631 78.7339L36.3374 81.6577L36.5522 82.6344L49.8458 79.7106L49.631 78.7339ZM35.73 77.8847C35.73 77.6948 35.8375 77.5213 36.0076 77.4369L35.5627 76.5413C35.0526 76.7947 34.73 77.3151 34.73 77.8847H35.73ZM34.73 81.1694C34.73 82.1277 35.6163 82.8402 36.5522 82.6344L36.3374 81.6577C36.0254 81.7263 35.73 81.4888 35.73 81.1694H34.73Z" fill="#838794"/>
<path d="M54.6674 70.7981L54.175 70.7111L54.2913 70.053L54.8898 70.3503L54.6674 70.7981ZM53.1782 79.2223L53.0708 79.7106L52.6023 79.6076L52.6858 79.1352L53.1782 79.2223ZM67.1314 76.9891L67.3539 76.5413L67.1314 76.9891ZM67.1866 81.1694V77.8847H68.1866V81.1694H67.1866ZM66.909 77.4369L54.4449 71.2459L54.8898 70.3503L67.3539 76.5413L66.909 77.4369ZM55.1597 70.8851L53.6706 79.3093L52.6858 79.1352L54.175 70.7111L55.1597 70.8851ZM53.2856 78.7339L66.5792 81.6577L66.3644 82.6344L53.0708 79.7106L53.2856 78.7339ZM67.1866 77.8847C67.1866 77.6948 67.0791 77.5213 66.909 77.4369L67.3539 76.5413C67.864 76.7947 68.1866 77.3151 68.1866 77.8847H67.1866ZM68.1866 81.1694C68.1866 82.1277 67.3003 82.8402 66.3644 82.6344L66.5792 81.6577C66.8912 81.7263 67.1866 81.4888 67.1866 81.1694H68.1866Z" fill="#838794"/>
<path d="M1.08096 57.0542V60.2579C1.08096 60.9739 1.81159 61.458 2.47097 61.1787L30.6134 49.259C33.2044 48.1616 35.9896 47.5961 38.8035 47.5961H46.951L46.7226 25.8584L1.52331 56.2241C1.24682 56.4099 1.08096 56.7211 1.08096 57.0542Z" fill="white"/>
<path d="M46.7226 25.8584L47.2226 25.8531L47.2128 24.9267L46.4438 25.4434L46.7226 25.8584ZM46.951 47.5961V48.0961H47.4563L47.451 47.5908L46.951 47.5961ZM30.6134 49.259L30.8084 49.7194L30.6134 49.259ZM2.47097 61.1787L2.27596 60.7183H2.27596L2.47097 61.1787ZM1.52331 56.2241L1.24448 55.8091H1.24448L1.52331 56.2241ZM1.58096 60.2579V57.0542H0.580963V60.2579H1.58096ZM46.2226 25.8637L46.451 47.6013L47.451 47.5908L47.2226 25.8531L46.2226 25.8637ZM46.951 47.0961H38.8035V48.0961H46.951V47.0961ZM30.4184 48.7986L2.27596 60.7183L2.66597 61.6391L30.8084 49.7194L30.4184 48.7986ZM1.80213 56.6391L47.0014 26.2734L46.4438 25.4434L1.24448 55.8091L1.80213 56.6391ZM38.8035 47.0961C35.9226 47.0961 33.0711 47.6751 30.4184 48.7986L30.8084 49.7194C33.3377 48.6481 36.0566 48.0961 38.8035 48.0961V47.0961ZM1.58096 57.0542C1.58096 56.8876 1.66389 56.732 1.80214 56.6391L1.24448 55.8091C0.829742 56.0877 0.580963 56.5545 0.580963 57.0542H1.58096ZM0.580963 60.2579C0.580963 61.332 1.6769 62.058 2.66597 61.6391L2.27596 60.7183C1.94628 60.8579 1.58096 60.6159 1.58096 60.2579H0.580963Z" fill="#838794"/>
<path d="M101.852 57.0542V60.2579C101.852 60.9739 101.121 61.458 100.462 61.1787L72.3197 49.259C69.7286 48.1616 66.9434 47.5961 64.1296 47.5961H55.9821L56.2105 25.8584L101.41 56.2241C101.686 56.4099 101.852 56.7211 101.852 57.0542Z" fill="white"/>
<path d="M56.2105 25.8584L55.7105 25.8531L55.7203 24.9267L56.4893 25.4434L56.2105 25.8584ZM55.9821 47.5961V48.0961H55.4768L55.4821 47.5908L55.9821 47.5961ZM72.3197 49.259L72.1247 49.7194L72.3197 49.259ZM100.462 61.1787L100.657 60.7183H100.657L100.462 61.1787ZM101.41 56.2241L101.689 55.8091H101.689L101.41 56.2241ZM101.352 60.2579V57.0542H102.352V60.2579H101.352ZM56.7105 25.8637L56.482 47.6013L55.4821 47.5908L55.7105 25.8531L56.7105 25.8637ZM55.9821 47.0961H64.1296V48.0961H55.9821V47.0961ZM72.5147 48.7986L100.657 60.7183L100.267 61.6391L72.1247 49.7194L72.5147 48.7986ZM101.131 56.6391L55.9317 26.2734L56.4893 25.4434L101.689 55.8091L101.131 56.6391ZM64.1296 47.0961C67.0104 47.0961 69.8619 47.6751 72.5147 48.7986L72.1247 49.7194C69.5953 48.6481 66.8764 48.0961 64.1296 48.0961V47.0961ZM101.352 57.0542C101.352 56.8876 101.269 56.732 101.131 56.6391L101.689 55.8091C102.103 56.0877 102.352 56.5545 102.352 57.0542H101.352ZM102.352 60.2579C102.352 61.332 101.256 62.058 100.267 61.6391L100.657 60.7183C100.987 60.8579 101.352 60.6159 101.352 60.2579H102.352Z" fill="#838794"/>
</svg>
