<svg width="58" height="66" viewBox="0 0 58 66" fill="none" xmlns="http://www.w3.org/2000/svg">
<path d="M24.8321 35.7466L24.9162 36.2395L25.3321 36.1686V35.7466H24.8321ZM24.8321 25.5332H25.3321V24.769L24.6319 25.0751L24.8321 25.5332ZM2.06702 35.4846L1.86676 35.0264L2.06702 35.4846ZM0.96756 36.4009V38.547H1.96756V36.4009H0.96756ZM2.71978 40.0256L24.9162 36.2395L24.7481 35.2537L2.55163 39.0398L2.71978 40.0256ZM25.3321 35.7466V25.5332H24.3321V35.7466H25.3321ZM24.6319 25.0751L1.86676 35.0264L2.26729 35.9427L25.0324 25.9913L24.6319 25.0751ZM0.96756 38.547C0.96756 39.4762 1.80379 40.1818 2.71978 40.0256L2.55163 39.0398C2.2463 39.0919 1.96756 38.8567 1.96756 38.547H0.96756ZM1.96756 36.4009C1.96756 36.2022 2.08522 36.0223 2.26729 35.9427L1.86676 35.0264C1.32055 35.2652 0.96756 35.8047 0.96756 36.4009H1.96756Z" fill="#838794"/>
<path d="M33.1679 35.7466L33.0838 36.2395L32.6679 36.1686V35.7466H33.1679ZM33.1679 25.5332H32.6679V24.769L33.3681 25.0751L33.1679 25.5332ZM55.933 35.4846L56.1332 35.0264L55.933 35.4846ZM57.0324 36.4009V38.547H56.0324V36.4009H57.0324ZM55.2802 40.0256L33.0838 36.2395L33.2519 35.2537L55.4484 39.0398L55.2802 40.0256ZM32.6679 35.7466V25.5332H33.6679V35.7466H32.6679ZM33.3681 25.0751L56.1332 35.0264L55.7327 35.9427L32.9676 25.9913L33.3681 25.0751ZM57.0324 38.547C57.0324 39.4762 56.1962 40.1818 55.2802 40.0256L55.4484 39.0398C55.7537 39.0919 56.0324 38.8567 56.0324 38.547H57.0324ZM56.0324 36.4009C56.0324 36.2022 55.9148 36.0223 55.7327 35.9427L56.1332 35.0264C56.6795 35.2652 57.0324 35.8047 57.0324 36.4009H56.0324Z" fill="#838794"/>
<path d="M24.817 35.4402H24.317V35.4991L24.3307 35.5564L24.817 35.4402ZM33.1679 35.4402L33.6604 35.5266L33.6679 35.4837V35.4402H33.1679ZM31.0835 2.24466L30.5969 2.35979L31.0835 2.24466ZM31.6772 43.9343L31.1848 43.8479L31.6772 43.9343ZM26.6447 43.0878L26.1584 43.204L26.6447 43.0878ZM24.3307 35.5564L26.1584 43.204L27.131 42.9715L25.3033 35.3239L24.3307 35.5564ZM27.5168 54.7313V60.0348H28.5168V54.7313H27.5168ZM31.3183 60.0348V53.7979H30.3183V60.0348H31.3183ZM32.1697 44.0207L33.6604 35.5266L32.6754 35.3537L31.1848 43.8479L32.1697 44.0207ZM33.6679 35.4402V17.0499H32.6679V35.4402H33.6679ZM32.274 5.10471L31.5701 2.12954L30.5969 2.35979L31.3009 5.33496L32.274 5.10471ZM27.3344 1.93876L26.6266 4.0581L27.5751 4.3749L28.2829 2.25556L27.3344 1.93876ZM24.317 18.2634V35.4402H25.317V18.2634H24.317ZM26.6266 4.0581C25.0969 8.63797 24.317 13.4348 24.317 18.2634H25.317C25.317 13.5425 26.0795 8.85263 27.5751 4.3749L26.6266 4.0581ZM29.4251 0.432861C28.4768 0.432861 27.6348 1.03934 27.3344 1.93876L28.2829 2.25556C28.447 1.76419 28.907 1.43286 29.4251 1.43286V0.432861ZM31.5701 2.12954C31.3348 1.13516 30.4469 0.432861 29.4251 0.432861V1.43286C29.9833 1.43286 30.4684 1.81654 30.5969 2.35979L31.5701 2.12954ZM31.3183 53.7979C31.3183 50.5203 31.6032 47.249 32.1697 44.0207L31.1848 43.8479C30.6082 47.1332 30.3183 50.4624 30.3183 53.7979H31.3183ZM29.4176 61.9355C30.4673 61.9355 31.3183 61.0845 31.3183 60.0348H30.3183C30.3183 60.5322 29.915 60.9355 29.4176 60.9355V61.9355ZM27.5168 60.0348C27.5168 61.0845 28.3678 61.9355 29.4176 61.9355V60.9355C28.9201 60.9355 28.5168 60.5322 28.5168 60.0348H27.5168ZM33.6679 17.0499C33.6679 13.0276 33.2001 9.01892 32.274 5.10471L31.3009 5.33496C32.2091 9.17373 32.6679 13.1051 32.6679 17.0499H33.6679ZM26.1584 43.204C27.0609 46.98 27.5168 50.8489 27.5168 54.7313H28.5168C28.5168 50.7706 28.0517 46.8237 27.131 42.9715L26.1584 43.204Z" fill="#838794"/>
<path d="M28.5024 61.2381L28.7818 61.6527L29.3288 61.2843L28.8263 60.8571L28.5024 61.2381ZM27.9426 57.0748L28.4421 57.0974L28.4829 56.1981L27.6978 56.6388L27.9426 57.0748ZM18.2878 62.4944L18.0431 62.0584L18.2878 62.4944ZM23.0721 64.8964L22.7927 64.4817L23.0721 64.8964ZM18.5326 65.567H22.5134V64.567H18.5326V65.567ZM23.3514 65.3111L28.7818 61.6527L28.2231 60.8234L22.7927 64.4817L23.3514 65.3111ZM28.8263 60.8571C28.6981 60.7482 28.5492 60.4856 28.4683 59.8383C28.3895 59.2087 28.3865 58.3223 28.4421 57.0974L27.4431 57.0521C27.3872 58.2838 27.386 59.2427 27.476 59.9624C27.5638 60.6644 27.7506 61.2552 28.1786 61.619L28.8263 60.8571ZM27.6978 56.6388L18.0431 62.0584L18.5326 62.9304L28.1873 57.5108L27.6978 56.6388ZM17.5326 62.9304V64.567H18.5326V62.9304H17.5326ZM18.0431 62.0584C17.7278 62.2354 17.5326 62.5688 17.5326 62.9304H18.5326H18.5326L18.0431 62.0584ZM22.5134 65.567C22.812 65.567 23.1038 65.4779 23.3514 65.3111L22.7927 64.4817C22.7102 64.5373 22.6129 64.567 22.5134 64.567V65.567ZM18.5326 64.567H17.5326C17.5326 65.1193 17.9803 65.567 18.5326 65.567V64.567Z" fill="#838794"/>
<path d="M30.3501 61.2381L30.0708 61.6527L29.5238 61.2843L30.0263 60.8571L30.3501 61.2381ZM30.91 57.0748L30.4105 57.0974L30.3697 56.1981L31.1547 56.6388L30.91 57.0748ZM40.5647 62.4944L40.8094 62.0584L40.5647 62.4944ZM35.7805 64.8964L36.0598 64.4817L35.7805 64.8964ZM40.3199 65.567H36.3392V64.567H40.3199V65.567ZM35.5011 65.3111L30.0708 61.6527L30.6295 60.8234L36.0598 64.4817L35.5011 65.3111ZM30.0263 60.8571C30.1544 60.7482 30.3033 60.4856 30.3843 59.8383C30.463 59.2087 30.4661 58.3223 30.4105 57.0974L31.4094 57.0521C31.4654 58.2838 31.4666 59.2427 31.3765 59.9624C31.2887 60.6644 31.1019 61.2552 30.674 61.619L30.0263 60.8571ZM31.1547 56.6388L40.8094 62.0584L40.3199 62.9304L30.6652 57.5108L31.1547 56.6388ZM41.3199 62.9304V64.567H40.3199V62.9304H41.3199ZM40.8094 62.0584C41.1247 62.2354 41.3199 62.5688 41.3199 62.9304H40.3199H40.3199L40.8094 62.0584ZM36.3392 65.567C36.0406 65.567 35.7488 65.4779 35.5011 65.3111L36.0598 64.4817C36.1424 64.5373 36.2396 64.567 36.3392 64.567V65.567ZM40.3199 64.567H41.3199C41.3199 65.1193 40.8722 65.567 40.3199 65.567V64.567Z" fill="#838794"/>
<path d="M25.7338 45.183H23.5998C23.0475 45.183 22.5998 44.7353 22.5998 44.183V35.8738C22.5998 35.3215 23.0475 34.8738 23.5998 34.8738H25.7338C26.286 34.8738 26.7338 35.3215 26.7338 35.8738V44.183C26.7338 44.7353 26.286 45.183 25.7338 45.183Z" fill="white" stroke="#838794"/>
<path d="M34.7481 45.183H32.6141C32.0618 45.183 31.6141 44.7353 31.6141 44.183V35.8738C31.6141 35.3215 32.0618 34.8738 32.6141 34.8738H34.7481C35.3004 34.8738 35.7481 35.3215 35.7481 35.8738V44.183C35.7481 44.7353 35.3004 45.183 34.7481 45.183Z" fill="white" stroke="#838794"/>
<path d="M32.8251 10.9912C30.1678 7.03648 28.5427 6.77661 25.3131 10.9912V14.6129C28.4243 10.2263 30.0732 10.1223 32.8251 14.6129V10.9912Z" fill="#838794"/>
</svg>
