<svg width="84" height="73" viewBox="0 0 84 73" fill="none" xmlns="http://www.w3.org/2000/svg">
<path d="M37.5584 31.4963L38.0575 31.4672L38.0269 30.9424L37.5043 30.9993L37.5584 31.4963ZM38.3283 44.6765L38.2524 45.1708L38.8635 45.2645L38.8274 44.6474L38.3283 44.6765ZM1.7338 38.1255V36.3473H0.733795V38.1255H1.7338ZM2.17969 35.8502L37.6125 31.9934L37.5043 30.9993L2.07148 34.8561L2.17969 35.8502ZM37.0592 31.5255L37.8291 44.7057L38.8274 44.6474L38.0575 31.4672L37.0592 31.5255ZM38.4041 44.1823L2.15795 38.6197L2.00626 39.6082L38.2524 45.1708L38.4041 44.1823ZM1.7338 36.3473C1.7338 36.0921 1.92599 35.8778 2.17969 35.8502L2.07148 34.8561C1.31037 34.9389 0.733795 35.5817 0.733795 36.3473H1.7338ZM0.733795 38.1255C0.733795 38.8661 1.27426 39.4958 2.00626 39.6082L2.15795 38.6197C1.91395 38.5823 1.7338 38.3724 1.7338 38.1255H0.733795Z" fill="#838794"/>
<path d="M46.4416 31.4963L45.9425 31.4672L45.9731 30.9424L46.4957 30.9993L46.4416 31.4963ZM45.6717 44.6765L45.7476 45.1708L45.1365 45.2645L45.1726 44.6474L45.6717 44.6765ZM82.2662 38.1255V36.3473H83.2662V38.1255H82.2662ZM81.8203 35.8502L46.3875 31.9934L46.4957 30.9993L81.9285 34.8561L81.8203 35.8502ZM46.9408 31.5255L46.1709 44.7057L45.1726 44.6474L45.9425 31.4672L46.9408 31.5255ZM45.5959 44.1823L81.8421 38.6197L81.9937 39.6082L45.7476 45.1708L45.5959 44.1823ZM82.2662 36.3473C82.2662 36.0921 82.074 35.8778 81.8203 35.8502L81.9285 34.8561C82.6896 34.9389 83.2662 35.5817 83.2662 36.3473H82.2662ZM83.2662 38.1255C83.2662 38.8661 82.7257 39.4958 81.9937 39.6082L81.8421 38.6197C82.0861 38.5823 82.2662 38.3724 82.2662 38.1255H83.2662Z" fill="#838794"/>
<path d="M37.8872 31.949H37.3872V31.9622L37.3879 31.9755L37.8872 31.949ZM46.0376 31.949L46.5371 31.9719L46.5376 31.9604V31.949H46.0376ZM44.685 61.4171L44.7189 61.9159L45.164 61.8857L45.1845 61.44L44.685 61.4171ZM39.4519 61.4171L38.9526 61.4436L38.976 61.8837L39.4155 61.9158L39.4519 61.4171ZM45.221 4.81293L44.7363 4.93558L45.221 4.81293ZM38.3872 31.949V11.8282H37.3872V31.949H38.3872ZM39.4643 4.55921L39.9679 2.89716L39.0108 2.60718L38.5072 4.26923L39.4643 4.55921ZM44.2456 2.99634L44.7363 4.93558L45.7058 4.69027L45.215 2.75102L44.2456 2.99634ZM45.5376 11.3684V31.949H46.5376V11.3684H45.5376ZM45.5381 31.9261L44.1855 61.3942L45.1845 61.44L46.5371 31.9719L45.5381 31.9261ZM44.6511 60.9182C42.6404 61.0549 41.5189 61.0665 39.4883 60.9184L39.4155 61.9158C41.4985 62.0677 42.6674 62.0553 44.7189 61.9159L44.6511 60.9182ZM39.9512 61.3906L38.3865 31.9225L37.3879 31.9755L38.9526 61.4436L39.9512 61.3906ZM44.7363 4.93558C45.2684 7.03847 45.5376 9.19925 45.5376 11.3684H46.5376C46.5376 9.11653 46.2582 6.87335 45.7058 4.69027L44.7363 4.93558ZM42.093 1.32056C43.1095 1.32056 43.9962 2.01085 44.2456 2.99634L45.215 2.75102C44.8534 1.32173 43.5673 0.320557 42.093 0.320557V1.32056ZM39.9679 2.89716C40.2516 1.96086 41.1146 1.32056 42.093 1.32056V0.320557C40.674 0.320557 39.4223 1.24922 39.0108 2.60718L39.9679 2.89716ZM38.3872 11.8282C38.3872 9.36544 38.7501 6.91614 39.4643 4.55921L38.5072 4.26923C37.7646 6.72018 37.3872 9.26719 37.3872 11.8282H38.3872Z" fill="#838794"/>
<path d="M41.9625 61.5227V61.0227H41.4625V61.5227H41.9625ZM42.0455 61.5227H42.5455V61.0227H42.0455V61.5227ZM41.4625 61.5227V71.5751H42.4625V61.5227H41.4625ZM42.5455 71.5751V61.5227H41.5455V71.5751H42.5455ZM42.0455 61.0227H41.9625V62.0227H42.0455V61.0227ZM42.004 72.1167C42.3031 72.1167 42.5455 71.8742 42.5455 71.5751H41.5455C41.5455 71.3219 41.7508 71.1167 42.004 71.1167V72.1167ZM41.4625 71.5751C41.4625 71.8742 41.7049 72.1167 42.004 72.1167V71.1167C42.2572 71.1167 42.4625 71.3219 42.4625 71.5751H41.4625Z" fill="#838794"/>
<path d="M41.9161 69.8901V70.3901H42.4161V69.8901H41.9161ZM27.1758 70.3901H41.9161V69.3901H27.1758V70.3901ZM42.4161 69.8901V63.7197H41.4161V69.8901H42.4161ZM39.3549 61.2835L26.8391 64.1668L27.0636 65.1412L39.5794 62.258L39.3549 61.2835ZM25.6758 65.6285V68.8901H26.6758V65.6285H25.6758ZM26.8391 64.1668C26.1582 64.3236 25.6758 64.9298 25.6758 65.6285H26.6758C26.6758 65.3956 26.8366 65.1935 27.0636 65.1412L26.8391 64.1668ZM42.4161 63.7197C42.4161 62.1123 40.9212 60.9227 39.3549 61.2835L39.5794 62.258C40.5191 62.0415 41.4161 62.7553 41.4161 63.7197H42.4161ZM27.1758 69.3901C26.8997 69.3901 26.6758 69.1663 26.6758 68.8901H25.6758C25.6758 69.7186 26.3474 70.3901 27.1758 70.3901V69.3901Z" fill="#838794"/>
<path d="M41.9161 69.8901V70.3901H41.4161V69.8901H41.9161ZM56.6564 70.3901H41.9161V69.3901H56.6564V70.3901ZM41.4161 69.8901V63.7197H42.4161V69.8901H41.4161ZM44.4773 61.2835L56.9931 64.1668L56.7687 65.1412L44.2529 62.258L44.4773 61.2835ZM58.1564 65.6285V68.8901H57.1564V65.6285H58.1564ZM56.9931 64.1668C57.674 64.3236 58.1564 64.9298 58.1564 65.6285H57.1564C57.1564 65.3956 56.9956 65.1935 56.7687 65.1412L56.9931 64.1668ZM41.4161 63.7197C41.4161 62.1123 42.911 60.9227 44.4773 61.2835L44.2529 62.258C43.3131 62.0415 42.4161 62.7553 42.4161 63.7197H41.4161ZM56.6564 69.3901C56.9326 69.3901 57.1564 69.1663 57.1564 68.8901H58.1564C58.1564 69.7186 57.4848 70.3901 56.6564 70.3901V69.3901Z" fill="#838794"/>
<path d="M46.0219 14.806C42.9381 10.8708 41.1635 10.6786 37.8491 14.806V10.2622C41.312 7.61851 43.095 7.73246 46.022 10.2622L46.0219 14.806Z" fill="#838794"/>
<path d="M36.1556 55.9297H35.0687C34.9432 55.9297 34.831 55.8516 34.7874 55.734L34.5465 55.0839C33.8048 53.0821 33.425 50.9644 33.425 48.8297V43.7349C33.425 43.3727 33.6189 43.0331 33.946 42.8775C35.1795 42.2906 36.0694 42.3016 37.3451 42.8812C37.6832 43.0348 37.8873 43.3808 37.8873 43.7522V48.6354C37.8873 50.8964 37.4613 53.1372 36.6316 55.2405L36.4347 55.7398C36.3895 55.8544 36.2788 55.9297 36.1556 55.9297Z" fill="white"/>
<path d="M36.4347 55.7398L35.9695 55.5564L35.9695 55.5564L36.4347 55.7398ZM36.6316 55.2405L37.0967 55.424H37.0967L36.6316 55.2405ZM37.3451 42.8812L37.552 42.426V42.426L37.3451 42.8812ZM33.946 42.8775L33.7311 42.426V42.426L33.946 42.8775ZM34.5465 55.0839L35.0154 54.9102L34.5465 55.0839ZM34.7874 55.734L34.3185 55.9077H34.3185L34.7874 55.734ZM35.0687 56.4297H36.1556V55.4297H35.0687V56.4297ZM36.8998 55.9233L37.0967 55.424L36.1665 55.0571L35.9695 55.5564L36.8998 55.9233ZM38.3873 48.6354V43.7522H37.3873V48.6354H38.3873ZM37.552 42.426C36.8764 42.119 36.2628 41.9441 35.6314 41.9419C34.9979 41.9397 34.3918 42.1116 33.7311 42.426L34.1608 43.329C34.7336 43.0564 35.1892 42.9404 35.628 42.9419C36.0689 42.9434 36.5381 43.0637 37.1383 43.3364L37.552 42.426ZM32.925 43.7349V48.8297H33.925V43.7349H32.925ZM34.0777 55.2576L34.3185 55.9077L35.2562 55.5603L35.0154 54.9102L34.0777 55.2576ZM32.925 48.8297C32.925 51.0237 33.3153 53.2003 34.0777 55.2576L35.0154 54.9102C34.2942 52.964 33.925 50.9051 33.925 48.8297H32.925ZM33.7311 42.426C33.2124 42.6728 32.925 43.2 32.925 43.7349H33.925C33.925 43.5455 34.0254 43.3934 34.1608 43.329L33.7311 42.426ZM38.3873 43.7522C38.3873 43.2026 38.0842 42.6678 37.552 42.426L37.1383 43.3364C37.2822 43.4018 37.3873 43.5591 37.3873 43.7522H38.3873ZM37.0967 55.424C37.9495 53.2623 38.3873 50.9592 38.3873 48.6354H37.3873C37.3873 50.8336 36.9731 53.0122 36.1665 55.0571L37.0967 55.424ZM36.1556 56.4297C36.4841 56.4297 36.7792 56.2289 36.8998 55.9233L35.9695 55.5564C35.9997 55.48 36.0735 55.4297 36.1556 55.4297V56.4297ZM35.0687 55.4297C35.1524 55.4297 35.2272 55.4818 35.2562 55.5603L34.3185 55.9077C34.4348 56.2215 34.7341 56.4297 35.0687 56.4297V55.4297Z" fill="#838794"/>
<path d="M48.9104 55.9297H47.8235C47.698 55.9297 47.5858 55.8516 47.5422 55.734L47.3013 55.0839C46.5596 53.0821 46.1798 50.9644 46.1798 48.8297V43.7349C46.1798 43.3727 46.3737 43.0331 46.7008 42.8775C47.9343 42.2906 48.8242 42.3016 50.0999 42.8812C50.438 43.0348 50.6421 43.3808 50.6421 43.7522V48.6354C50.6421 50.8964 50.2161 53.1372 49.3864 55.2405L49.1895 55.7398C49.1443 55.8544 49.0336 55.9297 48.9104 55.9297Z" fill="white"/>
<path d="M49.1895 55.7398L48.7244 55.5564L48.7243 55.5564L49.1895 55.7398ZM49.3864 55.2405L49.8515 55.424H49.8515L49.3864 55.2405ZM50.0999 42.8812L50.3068 42.426V42.426L50.0999 42.8812ZM46.7008 42.8775L46.4859 42.426V42.426L46.7008 42.8775ZM47.3013 55.0839L47.7702 54.9102L47.3013 55.0839ZM47.5422 55.734L47.0734 55.9077H47.0734L47.5422 55.734ZM47.8235 56.4297H48.9104V55.4297H47.8235V56.4297ZM49.6546 55.9233L49.8515 55.424L48.9213 55.0571L48.7244 55.5564L49.6546 55.9233ZM51.1421 48.6354V43.7522H50.1421V48.6354H51.1421ZM50.3068 42.426C49.6312 42.119 49.0176 41.9441 48.3862 41.9419C47.7528 41.9397 47.1466 42.1116 46.4859 42.426L46.9156 43.329C47.4884 43.0564 47.944 42.9404 48.3828 42.9419C48.8237 42.9434 49.2929 43.0637 49.8931 43.3364L50.3068 42.426ZM45.6798 43.7349V48.8297H46.6798V43.7349H45.6798ZM46.8325 55.2576L47.0734 55.9077L48.0111 55.5603L47.7702 54.9102L46.8325 55.2576ZM45.6798 48.8297C45.6798 51.0237 46.0701 53.2003 46.8325 55.2576L47.7702 54.9102C47.049 52.964 46.6798 50.9051 46.6798 48.8297H45.6798ZM46.4859 42.426C45.9672 42.6728 45.6798 43.2 45.6798 43.7349H46.6798C46.6798 43.5455 46.7802 43.3934 46.9156 43.329L46.4859 42.426ZM51.1421 43.7522C51.1421 43.2026 50.839 42.6678 50.3068 42.426L49.8931 43.3364C50.037 43.4018 50.1421 43.5591 50.1421 43.7522H51.1421ZM49.8515 55.424C50.7043 53.2623 51.1421 50.9592 51.1421 48.6354H50.1421C50.1421 50.8336 49.728 53.0122 48.9213 55.0571L49.8515 55.424ZM48.9104 56.4297C49.2389 56.4297 49.534 56.2289 49.6546 55.9233L48.7243 55.5564C48.7545 55.48 48.8283 55.4297 48.9104 55.4297V56.4297ZM47.8235 55.4297C47.9072 55.4297 47.982 55.4818 48.0111 55.5603L47.0734 55.9077C47.1896 56.2215 47.4889 56.4297 47.8235 56.4297V55.4297Z" fill="#838794"/>
</svg>
