<svg width="102" height="87" viewBox="0 0 102 87" fill="none" xmlns="http://www.w3.org/2000/svg">
<path d="M52.4832 79.4976L52.9756 79.5844L52.4832 79.4976ZM55.0489 35.8712H54.5489H55.0489ZM47.4511 35.8702V15.3092H46.4511V35.8702H47.4511ZM48.9482 5.26768L49.1299 4.67192L48.1734 4.38023L47.9917 4.97599L48.9482 5.26768ZM53.4063 4.68274L53.7106 6.13993L54.6895 5.9355L54.3852 4.4783L53.4063 4.68274ZM54.5489 14.2546V35.8712H55.5489V14.2546H54.5489ZM49.9922 79.4085C49.3339 75.6308 47.4513 64.2906 47.4511 58.2504L46.4511 58.2504C46.4513 64.3952 48.3533 75.8286 49.0071 79.5802L49.9922 79.4085ZM47.4511 58.2504C47.4509 50.8857 47.4511 35.8931 47.4511 35.8712L46.4511 35.8712C46.4511 35.893 46.4509 50.8857 46.4511 58.2504L47.4511 58.2504ZM55.0489 35.8712C54.5489 35.8712 54.5489 35.8712 54.5489 35.8714C54.5489 35.8715 54.5489 35.8716 54.5489 35.8719C54.5489 35.8721 54.5489 35.8724 54.5489 35.8727C54.5489 35.8731 54.5489 35.8735 54.5489 35.8739C54.5489 35.8744 54.5489 35.8749 54.5489 35.8754C54.5489 35.876 54.5489 35.8766 54.5489 35.8773C54.5489 35.878 54.5489 35.8787 54.5489 35.8795C54.5489 35.8803 54.5489 35.8811 54.5489 35.882C54.5489 35.8829 54.5489 35.8839 54.5489 35.8849C54.5489 35.8859 54.5489 35.887 54.5489 35.8881C54.5489 35.8892 54.5489 35.8904 54.5489 35.8916C54.5489 35.8929 54.5489 35.8942 54.5489 35.8955C54.5489 35.8968 54.5489 35.8982 54.5489 35.8997C54.5489 35.9011 54.5489 35.9026 54.5489 35.9042C54.5489 35.9058 54.5489 35.9074 54.5489 35.9091C54.5489 35.9107 54.5489 35.9125 54.5489 35.9142C54.5489 35.916 54.5489 35.9178 54.5489 35.9197C54.5489 35.9216 54.5489 35.9236 54.5489 35.9256C54.5489 35.9276 54.5489 35.9296 54.5489 35.9317C54.5489 35.9338 54.5489 35.936 54.5489 35.9382C54.5489 35.9404 54.5489 35.9427 54.5489 35.945C54.5489 35.9473 54.5489 35.9497 54.5489 35.9521C54.5489 35.9545 54.5489 35.957 54.5489 35.9595C54.5489 35.9621 54.5489 35.9646 54.5489 35.9673C54.5489 35.9699 54.5489 35.9726 54.5489 35.9753C54.5489 35.9781 54.5489 35.9809 54.5489 35.9837C54.5489 35.9866 54.5489 35.9895 54.5489 35.9924C54.5489 35.9954 54.5489 35.9984 54.5489 36.0014C54.5489 36.0185 54.5489 36.003 54.5489 36.0204C54.5489 36.0237 54.5489 36.027 54.5489 36.0304C54.5489 36.0337 54.5489 36.0372 54.5489 36.0406C54.5489 36.0441 54.5489 36.0476 54.5489 36.0512C54.5489 36.0548 54.5489 36.0584 54.5489 36.0621C54.5489 36.0658 54.5489 36.0695 54.5489 36.0733C54.5489 36.0771 54.5489 36.0809 54.5489 36.0848C54.5489 36.1262 54.5489 36.0908 54.5489 36.1338C54.5489 36.1381 54.5489 36.1425 54.5489 36.1468C54.5489 36.1512 54.5489 36.1557 54.5489 36.1602C54.5489 36.1646 54.5489 36.1692 54.5489 36.1738C54.5489 36.1784 54.5489 36.183 54.5489 36.1877C54.5489 36.2134 54.5489 36.1904 54.5489 36.2164C54.5489 36.2213 54.5489 36.2262 54.5489 36.2312C54.5489 36.2362 54.5489 36.2412 54.5489 36.2463C54.5489 36.3276 54.5489 36.4215 54.5489 36.5271C54.5489 36.5338 54.5489 36.5404 54.5489 36.5471C54.5489 36.5538 54.5489 36.5605 54.5489 36.5673C54.5489 36.5741 54.5489 36.581 54.5489 36.5878C54.5489 36.5947 54.5489 36.6016 54.5489 36.6086C54.5489 36.6463 54.5489 36.6553 54.5489 36.6945C54.5489 36.7336 54.5489 36.7441 54.5489 36.7846C54.5489 36.8262 54.5489 36.7893 54.5489 36.8313C54.5489 36.8392 54.5489 36.8471 54.5489 36.855C54.5489 36.863 54.5489 36.871 54.5489 36.879C54.5489 36.8871 54.5489 36.8952 54.5489 36.9033C54.5489 36.9114 54.5489 36.9196 54.5489 36.9278C54.5489 36.936 54.5489 36.9443 54.5489 36.9526C54.5489 36.9609 54.5489 36.9692 54.5489 36.9776C54.5489 37.0229 54.5489 36.9828 54.5489 37.0285C54.5489 37.037 54.5489 37.0456 54.5489 37.0543C54.5489 37.0629 54.5489 37.0716 54.5489 37.0803C54.5489 37.0891 54.5489 37.0978 54.5489 37.1067C54.5489 37.1155 54.5489 37.1243 54.5489 37.1332C54.5489 37.1421 54.5489 37.1511 54.5489 37.16C54.5489 37.169 54.5489 37.1781 54.5489 37.1871C54.5489 37.236 54.5489 37.1928 54.5489 37.242C54.5489 37.2512 54.5489 37.2605 54.5489 37.2698C54.5489 37.2791 54.5489 37.2885 54.5489 37.2979C54.5489 37.5985 54.5489 37.9411 54.5489 38.32C54.5489 39.078 54.5489 39.9816 54.5489 40.9873C54.5489 41.003 54.5489 41.0187 54.5489 41.0345C54.5489 41.0502 54.5489 41.066 54.5489 41.0818C54.5489 41.1241 54.5489 41.1346 54.5489 41.177C54.5489 41.2194 54.5489 41.2301 54.5489 41.2728C54.5489 41.2888 54.5489 41.3048 54.5489 41.3209C54.5489 41.3369 54.5489 41.353 54.5489 41.3691C54.5489 41.3852 54.5489 41.4013 54.5489 41.4175C54.5489 41.4336 54.5489 41.4498 54.5489 41.466C54.5489 41.4822 54.5489 41.4984 54.5489 41.5146C54.5489 41.5309 54.5489 41.5471 54.5489 41.5634C54.5489 41.5797 54.5489 41.596 54.5489 41.6123C54.5489 41.6287 54.5489 41.645 54.5489 41.6614C54.5489 41.6778 54.5489 41.6942 54.5489 41.7106C54.5489 41.727 54.5489 41.7435 54.5489 41.7599C54.5489 41.8917 54.5489 42.0248 54.5489 42.1593C54.5489 42.1761 54.5489 42.193 54.5489 42.2098C54.5489 42.2267 54.5489 42.2436 54.5489 42.2604C54.5489 42.2773 54.5489 42.2943 54.5489 42.3112C54.5489 42.3281 54.5489 42.3451 54.5489 42.3621C54.5489 42.379 54.5489 42.396 54.5489 42.4131C54.5489 42.4301 54.5489 42.4471 54.5489 42.4642C54.5489 42.4812 54.5489 42.4983 54.5489 42.5154C54.5489 42.5325 54.5489 42.5496 54.5489 42.5667C54.5489 42.5839 54.5489 42.601 54.5489 42.6182C54.5489 42.6354 54.5489 42.6526 54.5489 42.6698C54.5489 42.687 54.5489 42.7042 54.5489 42.7215C54.5489 42.7387 54.5489 42.756 54.5489 42.7733C54.5489 42.7906 54.5489 42.8079 54.5489 42.8252C54.5489 42.8425 54.5489 42.8599 54.5489 42.8773C54.5489 42.8946 54.5489 42.912 54.5489 42.9294C54.5489 42.9468 54.5489 42.9642 54.5489 42.9817C54.5489 42.9991 54.5489 43.0166 54.5489 43.034C54.5489 43.0515 54.5489 43.069 54.5489 43.0865C54.5489 43.1332 54.5489 43.1449 54.5489 43.1918C54.5489 43.2621 54.5489 43.3327 54.5489 43.4036C54.5489 43.6871 54.5489 43.9749 54.5489 44.2664C54.5489 48.9107 54.5489 54.5434 54.5489 58.2504H55.5489C55.5489 54.5434 55.5489 48.9107 55.5489 44.2664C55.5489 43.9749 55.5489 43.6871 55.5489 43.4036C55.5489 43.3327 55.5489 43.2621 55.5489 43.1918C55.5489 43.1449 55.5489 43.1332 55.5489 43.0865C55.5489 43.069 55.5489 43.0515 55.5489 43.034C55.5489 43.0166 55.5489 42.9991 55.5489 42.9817C55.5489 42.9642 55.5489 42.9468 55.5489 42.9294C55.5489 42.912 55.5489 42.8946 55.5489 42.8773C55.5489 42.8599 55.5489 42.8425 55.5489 42.8252C55.5489 42.8079 55.5489 42.7906 55.5489 42.7733C55.5489 42.756 55.5489 42.7387 55.5489 42.7215C55.5489 42.7042 55.5489 42.687 55.5489 42.6698C55.5489 42.6526 55.5489 42.6354 55.5489 42.6182C55.5489 42.601 55.5489 42.5839 55.5489 42.5667C55.5489 42.5496 55.5489 42.5325 55.5489 42.5154C55.5489 42.4983 55.5489 42.4812 55.5489 42.4642C55.5489 42.4471 55.5489 42.4301 55.5489 42.4131C55.5489 42.396 55.5489 42.379 55.5489 42.3621C55.5489 42.3451 55.5489 42.3281 55.5489 42.3112C55.5489 42.2943 55.5489 42.2773 55.5489 42.2604C55.5489 42.2436 55.5489 42.2267 55.5489 42.2098C55.5489 42.193 55.5489 42.1761 55.5489 42.1593C55.5489 42.0248 55.5489 41.8917 55.5489 41.7599C55.5489 41.7435 55.5489 41.727 55.5489 41.7106C55.5489 41.6942 55.5489 41.6778 55.5489 41.6614C55.5489 41.645 55.5489 41.6287 55.5489 41.6123C55.5489 41.596 55.5489 41.5797 55.5489 41.5634C55.5489 41.5471 55.5489 41.5309 55.5489 41.5146C55.5489 41.4984 55.5489 41.4822 55.5489 41.466C55.5489 41.4498 55.5489 41.4336 55.5489 41.4175C55.5489 41.4013 55.5489 41.3852 55.5489 41.3691C55.5489 41.2403 55.5489 41.113 55.5489 40.9873C55.5489 39.9816 55.5489 39.078 55.5489 38.32C55.5489 38.2573 55.5489 38.3118 55.5489 38.2494C55.5489 38.2377 55.5489 38.226 55.5489 38.2144C55.5489 38.2028 55.5489 38.1912 55.5489 38.1796C55.5489 38.1681 55.5489 38.1566 55.5489 38.1451C55.5489 38.1336 55.5489 38.1221 55.5489 38.1107C55.5489 38.0993 55.5489 38.0879 55.5489 38.0766C55.5489 38.0653 55.5489 38.054 55.5489 38.0427C55.5489 37.9208 55.5489 37.8967 55.5489 37.7796C55.5489 37.669 55.5489 37.6367 55.5489 37.5311C55.5489 37.5211 55.5489 37.5111 55.5489 37.5011C55.5489 37.4912 55.5489 37.4813 55.5489 37.4714C55.5489 37.4615 55.5489 37.4517 55.5489 37.4419C55.5489 37.4321 55.5489 37.4223 55.5489 37.4126C55.5489 37.4029 55.5489 37.3932 55.5489 37.3835C55.5489 37.3739 55.5489 37.3643 55.5489 37.3547C55.5489 37.3452 55.5489 37.3357 55.5489 37.3262C55.5489 37.3167 55.5489 37.3073 55.5489 37.2979C55.5489 37.2885 55.5489 37.2791 55.5489 37.2698C55.5489 37.2605 55.5489 37.2512 55.5489 37.242C55.5489 37.1928 55.5489 37.236 55.5489 37.1871C55.5489 37.1781 55.5489 37.169 55.5489 37.16C55.5489 37.1511 55.5489 37.1421 55.5489 37.1332C55.5489 37.1243 55.5489 37.1155 55.5489 37.1067C55.5489 37.0978 55.5489 37.0891 55.5489 37.0803C55.5489 37.0716 55.5489 37.0629 55.5489 37.0543C55.5489 37.0456 55.5489 37.037 55.5489 37.0285C55.5489 37.0199 55.5489 37.0114 55.5489 37.0029C55.5489 36.9945 55.5489 36.986 55.5489 36.9776C55.5489 36.9692 55.5489 36.9609 55.5489 36.9526C55.5489 36.9443 55.5489 36.936 55.5489 36.9278C55.5489 36.9196 55.5489 36.9114 55.5489 36.9033C55.5489 36.8952 55.5489 36.8871 55.5489 36.879C55.5489 36.7504 55.5489 36.6328 55.5489 36.5271C55.5489 36.4215 55.5489 36.3276 55.5489 36.2463C55.5489 36.2412 55.5489 36.2362 55.5489 36.2312C55.5489 36.2262 55.5489 36.2213 55.5489 36.2164C55.5489 36.2115 55.5489 36.2067 55.5489 36.2019C55.5489 36.1971 55.5489 36.1924 55.5489 36.1877C55.5489 36.183 55.5489 36.1784 55.5489 36.1738C55.5489 36.1692 55.5489 36.1646 55.5489 36.1602C55.5489 36.1557 55.5489 36.1512 55.5489 36.1468C55.5489 36.1425 55.5489 36.1381 55.5489 36.1338C55.5489 36.0908 55.5489 36.1262 55.5489 36.0848C55.5489 36.0809 55.5489 36.0771 55.5489 36.0733C55.5489 36.0695 55.5489 36.0658 55.5489 36.0621C55.5489 36.0584 55.5489 36.0548 55.5489 36.0512C55.5489 36.0476 55.5489 36.0441 55.5489 36.0406C55.5489 36.0372 55.5489 36.0337 55.5489 36.0304C55.5489 36.027 55.5489 36.0237 55.5489 36.0204C55.5489 36.003 55.5489 36.0185 55.5489 36.0014C55.5489 35.9984 55.5489 35.9954 55.5489 35.9924C55.5489 35.9895 55.5489 35.9866 55.5489 35.9837C55.5489 35.9809 55.5489 35.9781 55.5489 35.9753C55.5489 35.9726 55.5489 35.9699 55.5489 35.9673C55.5489 35.942 55.5489 35.9618 55.5489 35.9382C55.5489 35.936 55.5489 35.9338 55.5489 35.9317C55.5489 35.9296 55.5489 35.9276 55.5489 35.9256C55.5489 35.9236 55.5489 35.9216 55.5489 35.9197C55.5489 35.9178 55.5489 35.916 55.5489 35.9142C55.5489 35.9125 55.5489 35.9107 55.5489 35.9091C55.5489 35.9074 55.5489 35.9058 55.5489 35.9042C55.5489 35.9026 55.5489 35.9011 55.5489 35.8997C55.5489 35.8982 55.5489 35.8968 55.5489 35.8955C55.5489 35.8942 55.5489 35.8929 55.5489 35.8916C55.5489 35.8904 55.5489 35.8892 55.5489 35.8881C55.5489 35.887 55.5489 35.8859 55.5489 35.8849C55.5489 35.8839 55.5489 35.8829 55.5489 35.882C55.5489 35.8811 55.5489 35.8803 55.5489 35.8795C55.5489 35.8787 55.5489 35.878 55.5489 35.8773C55.5489 35.8766 55.5489 35.876 55.5489 35.8754C55.5489 35.8749 55.5489 35.8744 55.5489 35.8739C55.5489 35.8735 55.5489 35.8731 55.5489 35.8727C55.5489 35.8724 55.5489 35.8721 55.5489 35.8719C55.5489 35.8716 55.5489 35.8715 55.5489 35.8714C55.5489 35.8712 55.5489 35.8712 55.0489 35.8712ZM54.5489 58.2504C54.5489 64.3562 52.6542 75.6478 51.9908 79.4108L52.9756 79.5844C53.6345 75.8469 55.5489 64.4616 55.5489 58.2504H54.5489ZM51.5803 1.73016C51.4506 1.79738 51.296 1.79774 51.1657 1.73015L51.626 0.842411C51.467 0.759943 51.2782 0.76033 51.1199 0.842435L51.5803 1.73016ZM50.9918 80.2381C50.4931 80.2381 50.076 79.8895 49.9922 79.4085L49.0071 79.5802C49.1761 80.5503 50.0176 81.2381 50.9918 81.2381V80.2381ZM50.9918 81.2381C51.9644 81.2381 52.805 80.5526 52.9756 79.5844L51.9908 79.4108C51.9062 79.8907 51.4897 80.2381 50.9918 80.2381V81.2381ZM55.5489 35.8712C55.5489 35.8712 55.5489 35.8712 55.5489 35.8712C55.5489 35.8712 55.0489 35.8712 54.5489 35.8712C54.5489 35.8712 54.5489 35.8712 54.5489 35.8712C54.5489 35.8712 54.5489 35.8712 55.0489 35.8712C55.5489 35.8712 55.5489 35.8712 55.5489 35.8712C55.5489 35.8712 55.5489 35.8712 55.5489 35.8712C55.0489 35.8712 54.5489 35.8712 54.5489 35.8712C54.5489 35.8712 54.5489 35.8712 54.5489 35.8712H55.5489ZM53.7106 6.13993C54.268 8.80884 54.5489 11.5281 54.5489 14.2546H55.5489C55.5489 11.4594 55.2609 8.67165 54.6895 5.9355L53.7106 6.13993ZM54.3852 4.4783C54.0583 2.9134 53.0452 1.57836 51.626 0.842411L51.1657 1.73015C52.3182 2.32779 53.1409 3.41193 53.4063 4.68274L54.3852 4.4783ZM49.1299 4.67192C49.5169 3.40282 50.4019 2.34128 51.5803 1.73016L51.1199 0.842435C49.7032 1.57712 48.6391 2.8532 48.1734 4.38023L49.1299 4.67192ZM47.4511 15.3092C47.4511 11.9064 47.9557 8.52247 48.9482 5.26768L47.9917 4.97599C46.9703 8.32532 46.4511 11.8076 46.4511 15.3092H47.4511ZM46.4511 35.8702C46.4511 35.8709 46.4511 35.8705 46.4511 35.8712L47.4511 35.8712C47.4511 35.8705 47.4511 35.8708 47.4511 35.8702H46.4511Z" fill="#838794"/>
<path d="M55.049 9.26565C52.0356 6.14602 50.3015 5.99362 47.0628 9.26565L47.8031 5.66352C50.7992 3.5511 51.5414 3.65811 54.4015 5.66352L55.049 9.26565Z" fill="#838794"/>
<path d="M45.35 71.538H44.4342C44.302 71.538 44.1853 71.4513 44.147 71.3247L43.6817 69.784C43.172 68.0962 42.913 66.3428 42.913 64.5797V57.8742C42.913 57.5446 43.0728 57.2308 43.3567 57.0631C44.4953 56.3904 45.3078 56.4022 46.485 57.0647C46.7809 57.2312 46.951 57.5527 46.951 57.8923V64.416C46.951 66.2863 46.6596 68.1452 46.0871 69.9258L45.6356 71.3298C45.5957 71.4538 45.4803 71.538 45.35 71.538Z" fill="white"/>
<path d="M45.6356 71.3298L45.1596 71.1767L45.6356 71.3298ZM46.0871 69.9258L46.5631 70.0788L46.0871 69.9258ZM46.485 57.0647L46.2398 57.5004L46.485 57.0647ZM43.3567 57.0631L43.611 57.4936L43.3567 57.0631ZM43.6817 69.784L44.1604 69.6394L43.6817 69.784ZM44.147 71.3247L43.6684 71.4693H43.6684L44.147 71.3247ZM44.4342 72.038H45.35V71.038H44.4342V72.038ZM46.1116 71.4828L46.5631 70.0788L45.6111 69.7727L45.1596 71.1767L46.1116 71.4828ZM47.451 64.416V57.8923H46.451V64.416H47.451ZM46.7302 56.629C46.1032 56.2761 45.5194 56.0653 44.9081 56.0632C44.2938 56.0611 43.7164 56.2698 43.1023 56.6326L43.611 57.4936C44.1355 57.1837 44.5338 57.0619 44.9046 57.0632C45.2785 57.0645 45.6896 57.1908 46.2398 57.5004L46.7302 56.629ZM42.413 57.8742V64.5797H43.413V57.8742H42.413ZM43.2031 69.9285L43.6684 71.4693L44.6257 71.1801L44.1604 69.6394L43.2031 69.9285ZM42.413 64.5797C42.413 66.3917 42.6792 68.1939 43.2031 69.9285L44.1604 69.6394C43.6648 67.9986 43.413 66.2938 43.413 64.5797H42.413ZM43.1023 56.6326C42.6494 56.9002 42.413 57.3883 42.413 57.8742H43.413C43.413 57.7009 43.4963 57.5613 43.611 57.4936L43.1023 56.6326ZM47.451 57.8923C47.451 57.3905 47.199 56.8928 46.7302 56.629L46.2398 57.5004C46.3629 57.5697 46.451 57.7148 46.451 57.8923H47.451ZM46.5631 70.0788C47.1515 68.2488 47.451 66.3383 47.451 64.416H46.451C46.451 66.2344 46.1677 68.0416 45.6111 69.7727L46.5631 70.0788ZM45.35 72.038C45.6975 72.038 46.0053 71.8136 46.1116 71.4828L45.1596 71.1767C45.1862 71.094 45.2632 71.038 45.35 71.038V72.038ZM44.4342 71.038C44.5224 71.038 44.6002 71.0957 44.6257 71.1801L43.6684 71.4693C43.7704 71.8069 44.0815 72.038 44.4342 72.038V71.038Z" fill="#838794"/>
<path d="M57.4859 71.538H56.5701C56.4378 71.538 56.3212 71.4513 56.2829 71.3247L55.8176 69.784C55.3078 68.0962 55.0488 66.3428 55.0488 64.5797V57.8742C55.0488 57.5446 55.2087 57.2308 55.4925 57.0631C56.6312 56.3904 57.4436 56.4022 58.6208 57.0647C58.9168 57.2312 59.0869 57.5527 59.0869 57.8923V64.416C59.0869 66.2863 58.7954 68.1452 58.2229 69.9258L57.7715 71.3298C57.7316 71.4538 57.6162 71.538 57.4859 71.538Z" fill="white"/>
<path d="M57.7715 71.3298L57.2955 71.1767L57.7715 71.3298ZM58.2229 69.9258L58.6989 70.0788L58.2229 69.9258ZM58.6208 57.0647L58.3756 57.5004L58.6208 57.0647ZM55.4925 57.0631L55.7469 57.4936L55.4925 57.0631ZM55.8176 69.784L56.2962 69.6394L55.8176 69.784ZM56.2829 71.3247L55.8043 71.4693H55.8043L56.2829 71.3247ZM56.5701 72.038H57.4859V71.038H56.5701V72.038ZM58.2475 71.4828L58.6989 70.0788L57.7469 69.7727L57.2955 71.1767L58.2475 71.4828ZM59.5869 64.416V57.8923H58.5869V64.416H59.5869ZM58.8661 56.629C58.239 56.2761 57.6553 56.0653 57.0439 56.0632C56.4296 56.0611 55.8523 56.2698 55.2382 56.6326L55.7469 57.4936C56.2714 57.1837 56.6696 57.0619 57.0405 57.0632C57.4143 57.0645 57.8255 57.1908 58.3756 57.5004L58.8661 56.629ZM54.5488 57.8742V64.5797H55.5488V57.8742H54.5488ZM55.3389 69.9285L55.8043 71.4693L56.7616 71.1801L56.2962 69.6394L55.3389 69.9285ZM54.5488 64.5797C54.5488 66.3917 54.815 68.1939 55.3389 69.9285L56.2962 69.6394C55.8006 67.9986 55.5488 66.2938 55.5488 64.5797H54.5488ZM55.2382 56.6326C54.7852 56.9002 54.5488 57.3883 54.5488 57.8742H55.5488C55.5488 57.7009 55.6322 57.5613 55.7469 57.4936L55.2382 56.6326ZM59.5869 57.8923C59.5869 57.3905 59.3349 56.8928 58.8661 56.629L58.3756 57.5004C58.4987 57.5697 58.5869 57.7148 58.5869 57.8923H59.5869ZM58.6989 70.0788C59.2873 68.2488 59.5869 66.3383 59.5869 64.416H58.5869C58.5869 66.2344 58.3035 68.0416 57.7469 69.7727L58.6989 70.0788ZM57.4859 72.038C57.8334 72.038 58.1411 71.8136 58.2475 71.4828L57.2955 71.1767C57.3221 71.094 57.399 71.038 57.4859 71.038V72.038ZM56.5701 71.038C56.6583 71.038 56.7361 71.0957 56.7616 71.1801L55.8043 71.4693C55.9063 71.8069 56.2174 72.038 56.5701 72.038V71.038Z" fill="#838794"/>
<path d="M51.4179 69.1981H50.5021C50.3698 69.1981 50.2532 69.1115 50.2149 68.9848L49.7496 67.4441C49.2399 65.7564 48.9808 64.0029 48.9808 62.2399V55.5344C48.9808 55.2047 49.1407 54.8909 49.4245 54.7232C50.5632 54.0505 51.3756 54.0624 52.5529 54.7249C52.8488 54.8914 53.0189 55.2128 53.0189 55.5524V62.0762C53.0189 63.9465 52.7274 65.8054 52.1549 67.5859L51.7035 68.9899C51.6636 69.114 51.5482 69.1981 51.4179 69.1981Z" fill="white"/>
<path d="M51.7035 68.9899L51.2275 68.8369L51.7035 68.9899ZM52.1549 67.5859L52.6309 67.739L52.1549 67.5859ZM52.5529 54.7249L52.3076 55.1606L52.5529 54.7249ZM49.4245 54.7232L49.6789 55.1537L49.4245 54.7232ZM49.7496 67.4441L50.2282 67.2996L49.7496 67.4441ZM50.2149 68.9848L49.7363 69.1294H49.7363L50.2149 68.9848ZM50.5021 69.6981H51.4179V68.6981H50.5021V69.6981ZM52.1795 69.143L52.6309 67.739L51.6789 67.4329L51.2275 68.8369L52.1795 69.143ZM53.5189 62.0762V55.5524H52.5189V62.0762H53.5189ZM52.7981 54.2891C52.171 53.9362 51.5873 53.7254 50.9759 53.7233C50.3616 53.7212 49.7843 53.9299 49.1702 54.2927L49.6789 55.1537C50.2034 54.8438 50.6016 54.7221 50.9725 54.7233C51.3464 54.7246 51.7575 54.851 52.3076 55.1606L52.7981 54.2891ZM48.4808 55.5344V62.2399H49.4808V55.5344H48.4808ZM49.2709 67.5887L49.7363 69.1294L50.6936 68.8403L50.2282 67.2996L49.2709 67.5887ZM48.4808 62.2399C48.4808 64.0519 48.747 65.8541 49.2709 67.5887L50.2282 67.2996C49.7327 65.6587 49.4808 63.954 49.4808 62.2399H48.4808ZM49.1702 54.2927C48.7172 54.5604 48.4808 55.0484 48.4808 55.5344H49.4808C49.4808 55.361 49.5642 55.2215 49.6789 55.1537L49.1702 54.2927ZM53.5189 55.5524C53.5189 55.0507 53.2669 54.5529 52.7981 54.2891L52.3076 55.1606C52.4307 55.2299 52.5189 55.375 52.5189 55.5524H53.5189ZM52.6309 67.739C53.2193 65.909 53.5189 63.9985 53.5189 62.0762H52.5189C52.5189 63.8945 52.2355 65.7018 51.6789 67.4329L52.6309 67.739ZM51.4179 69.6981C51.7654 69.6981 52.0731 69.4738 52.1795 69.143L51.2275 68.8369C51.2541 68.7542 51.331 68.6981 51.4179 68.6981V69.6981ZM50.5021 68.6981C50.5903 68.6981 50.6681 68.7559 50.6936 68.8403L49.7363 69.1294C49.8383 69.4671 50.1494 69.6981 50.5021 69.6981V68.6981Z" fill="#838794"/>
<path d="M48.0744 71.1106L48.5668 71.0236L48.4306 70.253L47.7885 70.7004L48.0744 71.1106ZM49.5636 79.5348L49.7632 79.9932L50.1245 79.8358L50.0559 79.4477L49.5636 79.5348ZM33.4834 81.2789L33.7693 81.6891L33.4834 81.2789ZM34.4545 86.1162L34.2548 85.6578L34.4545 86.1162ZM33.5552 85.1994V82.0993H32.5552V85.1994H33.5552ZM33.7693 81.6891L48.3603 71.5208L47.7885 70.7004L33.1976 80.8687L33.7693 81.6891ZM47.582 71.1976L49.0712 79.6218L50.0559 79.4477L48.5668 71.0236L47.582 71.1976ZM49.3639 79.0764L34.2548 85.6578L34.6542 86.5746L49.7632 79.9932L49.3639 79.0764ZM33.5552 82.0993C33.5552 81.9358 33.6351 81.7826 33.7693 81.6891L33.1976 80.8687C32.7951 81.1492 32.5552 81.6087 32.5552 82.0993H33.5552ZM32.5552 85.1994C32.5552 86.28 33.6634 87.0061 34.6542 86.5746L34.2548 85.6578C33.9246 85.8016 33.5552 85.5596 33.5552 85.1994H32.5552Z" fill="#838794"/>
<path d="M53.8516 71.1106L53.3593 71.0236L53.4955 70.253L54.1375 70.7004L53.8516 71.1106ZM52.3625 79.5348L52.1628 79.9932L51.8015 79.8358L51.8701 79.4477L52.3625 79.5348ZM68.4426 81.2789L68.1567 81.6891L68.4426 81.2789ZM67.4715 86.1162L67.6712 85.6578L67.4715 86.1162ZM68.3708 85.1994V82.0993H69.3708V85.1994H68.3708ZM68.1567 81.6891L53.5657 71.5208L54.1375 70.7004L68.7285 80.8687L68.1567 81.6891ZM54.344 71.1976L52.8548 79.6218L51.8701 79.4477L53.3593 71.0236L54.344 71.1976ZM52.5621 79.0764L67.6712 85.6578L67.2718 86.5746L52.1628 79.9932L52.5621 79.0764ZM68.3708 82.0993C68.3708 81.9358 68.2909 81.7826 68.1567 81.6891L68.7285 80.8687C69.131 81.1492 69.3708 81.6087 69.3708 82.0993H68.3708ZM69.3708 85.1994C69.3708 86.28 68.2626 87.0061 67.2718 86.5746L67.6712 85.6578C68.0014 85.8016 68.3708 85.5596 68.3708 85.1994H69.3708Z" fill="#838794"/>
<path d="M2.41978 64.4912L2.22477 64.0308L2.41978 64.4912ZM1.52977 63.5704V60.4165H0.52977V63.5704H1.52977ZM1.78326 59.9815L18.3583 50.5886L17.8653 49.7186L1.29023 59.1115L1.78326 59.9815ZM46.1714 29.1762L46.3999 50.9138L47.3998 50.9033L47.1714 29.1656L46.1714 29.1762ZM22.8649 55.2887L2.22477 64.0308L2.61478 64.9516L23.2549 56.2095L22.8649 55.2887ZM18.3583 50.5886C28.706 44.7248 38.3242 37.6582 47.0128 29.5362L46.3299 28.8056C37.6989 36.8739 28.1444 43.8936 17.8653 49.7186L18.3583 50.5886ZM1.52977 60.4165C1.52977 60.2364 1.62659 60.0703 1.78326 59.9815L1.29023 59.1115C0.820244 59.3778 0.52977 59.8763 0.52977 60.4165H1.52977ZM46.8998 50.4086C38.6421 50.4086 30.4686 52.0682 22.8649 55.2887L23.2549 56.2095C30.7353 53.0412 38.7761 51.4086 46.8998 51.4086V50.4086ZM0.52977 63.5704C0.52977 64.6445 1.6257 65.3705 2.61478 64.9516L2.22477 64.0308C1.89508 64.1704 1.52977 63.9284 1.52977 63.5704H0.52977Z" fill="#838794"/>
<path d="M99.5803 64.4912L99.7753 64.0308L99.5803 64.4912ZM100.47 63.5704V60.4165H101.47V63.5704H100.47ZM100.217 59.9815L83.6417 50.5886L84.1347 49.7186L100.71 59.1115L100.217 59.9815ZM55.8286 29.1762L55.6002 50.9138L54.6003 50.9033L54.8287 29.1656L55.8286 29.1762ZM79.1352 55.2887L99.7753 64.0308L99.3853 64.9516L78.7452 56.2095L79.1352 55.2887ZM83.6417 50.5886C73.294 44.7248 63.6758 37.6582 54.9872 29.5362L55.6701 28.8056C64.3011 36.8739 73.8556 43.8936 84.1347 49.7186L83.6417 50.5886ZM100.47 60.4165C100.47 60.2364 100.373 60.0703 100.217 59.9815L100.71 59.1115C101.18 59.3778 101.47 59.8763 101.47 60.4165H100.47ZM55.1002 50.4086C63.3579 50.4086 71.5314 52.0682 79.1352 55.2887L78.7452 56.2095C71.2648 53.0412 63.2239 51.4086 55.1002 51.4086V50.4086ZM101.47 63.5704C101.47 64.6445 100.374 65.3705 99.3853 64.9516L99.7753 64.0308C100.105 64.1704 100.47 63.9284 100.47 63.5704H101.47Z" fill="#838794"/>
</svg>
