<svg width="36" height="36" viewBox="0 0 36 36" fill="none" xmlns="http://www.w3.org/2000/svg">
<path d="M18 0C8.07664 0 0 8.07664 0 18C0 27.9234 8.07664 36 18 36C27.9234 36 36 27.9234 36 18C36 8.07664 27.9234 0 18 0ZM18 3C26.302 3 33 9.69796 33 18C33 25.5411 27.4675 31.7419 20.2324 32.8184V22.374H24.5039L25.1748 18.0352H20.2324V15.665C20.2324 13.8635 20.8243 12.2637 22.5088 12.2637H25.2158V8.47852C24.7403 8.41402 23.734 8.27344 21.832 8.27344C17.86 8.27344 15.5332 10.3704 15.5332 15.1494V18.0352H11.4492V22.374H15.5332V32.7803C8.41328 31.606 3 25.4596 3 18C3 9.69796 9.69796 3 18 3Z" fill="#343947"/>
</svg>
