<svg width="34" height="24" viewBox="0 0 34 24" fill="none" xmlns="http://www.w3.org/2000/svg">
<path d="M5.12826 13.6083C5.53052 13.206 6.07611 12.98 6.645 12.98H13.6625C13.9444 12.98 14.2235 13.0356 14.4839 13.1435C14.7443 13.2515 14.9809 13.4097 15.1801 13.6091C15.3793 13.8086 15.5373 14.0453 15.6449 14.3059C15.7526 14.5664 15.8078 14.8456 15.8075 15.1275C15.8074 16.0585 15.4961 16.9628 14.9231 17.6967C14.3501 18.4305 13.5482 18.9517 12.645 19.1775L12.51 19.21C10.9625 19.5975 9.345 19.5975 7.795 19.21L7.6625 19.175C6.75925 18.9492 5.9574 18.428 5.38438 17.6942C4.81137 16.9603 4.50008 16.056 4.5 15.125C4.5 14.5561 4.72599 14.0105 5.12826 13.6083Z" fill="#838794"/>
<path d="M20.2197 7.71967C20.3603 7.57902 20.5511 7.5 20.75 7.5H28.25C28.4489 7.5 28.6397 7.57902 28.7803 7.71967C28.921 7.86032 29 8.05109 29 8.25C29 8.44891 28.921 8.63968 28.7803 8.78033C28.6397 8.92098 28.4489 9 28.25 9H20.75C20.5511 9 20.3603 8.92098 20.2197 8.78033C20.079 8.63968 20 8.44891 20 8.25C20 8.05109 20.079 7.86032 20.2197 7.71967Z" fill="#838794"/>
<path d="M20.2197 15.2197C20.3603 15.079 20.5511 15 20.75 15H28.25C28.4489 15 28.6397 15.079 28.7803 15.2197C28.921 15.3603 29 15.5511 29 15.75C29 15.9489 28.921 16.1397 28.7803 16.2803C28.6397 16.421 28.4489 16.5 28.25 16.5H20.75C20.5511 16.5 20.3603 16.421 20.2197 16.2803C20.079 16.1397 20 15.9489 20 15.75C20 15.5511 20.079 15.3603 20.2197 15.2197Z" fill="#838794"/>
<path d="M11.2594 10.5648C10.9085 10.7102 10.5323 10.785 10.1525 10.785C9.38536 10.785 8.64964 10.4803 8.10719 9.93781C7.56474 9.39536 7.26 8.65964 7.26 7.8925C7.26 7.12536 7.56474 6.38964 8.10719 5.84719C8.64964 5.30474 9.38536 5 10.1525 5C10.5323 5 10.9085 5.07482 11.2594 5.22018C11.6103 5.36554 11.9292 5.5786 12.1978 5.84719C12.4664 6.11579 12.6795 6.43465 12.8248 6.78559C12.9702 7.13652 13.045 7.51265 13.045 7.8925C13.045 8.27235 12.9702 8.64848 12.8248 8.99941C12.6795 9.35034 12.4664 9.66921 12.1978 9.93781C11.9292 10.2064 11.6103 10.4195 11.2594 10.5648Z" fill="#838794"/>
<path fill-rule="evenodd" clip-rule="evenodd" d="M0 3.875C0 1.73614 1.73614 0 3.875 0H30.125C32.2639 0 34 1.73614 34 3.875V20.125C34 21.1527 33.5917 22.1383 32.865 22.865C32.1383 23.5917 31.1527 24 30.125 24H3.875C2.84729 24 1.86166 23.5917 1.13496 22.865C0.408258 22.1383 0 21.1527 0 20.125V3.875ZM3.875 1.5C3.24511 1.5 2.64102 1.75022 2.19562 2.19562C1.75022 2.64102 1.5 3.24511 1.5 3.875V20.125C1.5 21.4361 2.56386 22.5 3.875 22.5H30.125C30.7549 22.5 31.359 22.2498 31.8044 21.8044C32.2498 21.359 32.5 20.7549 32.5 20.125V3.875C32.5 3.24511 32.2498 2.64102 31.8044 2.19562C31.359 1.75022 30.7549 1.5 30.125 1.5H3.875Z" fill="#838794"/>
</svg>
