<svg width="78" height="16" viewBox="0 0 78 16" fill="none" xmlns="http://www.w3.org/2000/svg">
<path d="M1 7C0.447715 7 0 7.44772 0 8C0 8.55228 0.447715 9 1 9V7ZM77.7071 8.70711C78.0976 8.31658 78.0976 7.68342 77.7071 7.29289L71.3431 0.928932C70.9526 0.538408 70.3195 0.538408 69.9289 0.928932C69.5384 1.31946 69.5384 1.95262 69.9289 2.34315L75.5858 8L69.9289 13.6569C69.5384 14.0474 69.5384 14.6805 69.9289 15.0711C70.3195 15.4616 70.9526 15.4616 71.3431 15.0711L77.7071 8.70711ZM1 9H77V7H1V9Z" fill="#343947"/>
</svg>
