<svg width="24" height="24" viewBox="0 0 24 24" fill="none" xmlns="http://www.w3.org/2000/svg">
<path d="M13.5667 12.0004L22.7778 2.78931C22.9598 2.57675 23.0549 2.30334 23.0441 2.0237C23.0333 1.74406 22.9174 1.47879 22.7195 1.28091C22.5217 1.08303 22.2564 0.9671 21.9767 0.956299C21.6971 0.945498 21.4237 1.04062 21.2111 1.22265L12 10.4338L2.78891 1.21153C2.57969 1.00231 2.29592 0.884766 2.00002 0.884766C1.70413 0.884766 1.42036 1.00231 1.21114 1.21153C1.00191 1.42076 0.884367 1.70453 0.884367 2.00042C0.884367 2.29631 1.00191 2.58009 1.21114 2.78931L10.4334 12.0004L1.21114 21.2115C1.09482 21.3111 1.00036 21.4337 0.933663 21.5716C0.86697 21.7094 0.829492 21.8596 0.823582 22.0126C0.817671 22.1656 0.843455 22.3182 0.899316 22.4608C0.955176 22.6034 1.03991 22.7329 1.14819 22.8411C1.25647 22.9494 1.38597 23.0342 1.52855 23.09C1.67114 23.1459 1.82373 23.1717 1.97675 23.1658C2.12977 23.1598 2.27992 23.1224 2.41777 23.0557C2.55562 22.989 2.67819 22.8945 2.7778 22.7782L12 13.5671L21.2111 22.7782C21.4237 22.9602 21.6971 23.0553 21.9767 23.0445C22.2564 23.0337 22.5217 22.9178 22.7195 22.7199C22.9174 22.5221 23.0333 22.2568 23.0441 21.9771C23.0549 21.6975 22.9598 21.4241 22.7778 21.2115L13.5667 12.0004Z" fill="#343947"/>
</svg>
