<svg width="24" height="24" viewBox="0 0 24 24" fill="none" xmlns="http://www.w3.org/2000/svg">
<path fill-rule="evenodd" clip-rule="evenodd" d="M21.0728 18.1165V21.0734H2.92719V18.1165C2.92719 17.5112 3.08228 16.9594 3.39264 16.4542C3.70363 15.9475 4.11338 15.5648 4.62517 15.2996C5.81834 14.7032 7.02876 14.2566 8.25668 13.9588C9.48525 13.6617 10.7328 13.5131 12 13.5131C13.2671 13.5131 14.5147 13.6617 15.7433 13.9588C16.9712 14.2566 18.1817 14.7032 19.3748 15.2996C19.8866 15.5648 20.2964 15.9476 20.6074 16.4543C20.9178 16.9595 21.0728 17.5112 21.0728 18.1165ZM4.60665 18.1165V19.3939H19.3933V18.1165C19.3933 17.842 19.3235 17.584 19.1826 17.3526C19.0449 17.1282 18.8608 16.9494 18.6324 16.8224L18.6193 16.8159C17.5399 16.2762 16.4479 15.87 15.3439 15.5986C14.2398 15.328 13.125 15.1926 12 15.1926C10.875 15.1926 9.75991 15.3281 8.65586 15.5987C7.55192 15.87 6.45999 16.2759 5.38055 16.8156L5.36776 16.8227C5.13939 16.9496 4.95537 17.1282 4.81843 17.3528C4.67648 17.5844 4.60665 17.8417 4.60665 18.1165ZM12 11.6641C10.7962 11.6641 9.77398 11.2394 8.91525 10.3807C8.05651 9.52194 7.6318 8.49976 7.6318 7.29593C7.6318 6.09209 8.05651 5.06991 8.91525 4.21118C9.77398 3.35245 10.7962 2.92773 12 2.92773C13.2038 2.92773 14.226 3.35245 15.0847 4.21118C15.9435 5.06991 16.3682 6.09209 16.3682 7.29593C16.3682 8.49976 15.9435 9.52194 15.0847 10.3807C14.226 11.2394 13.2038 11.6641 12 11.6641ZM12 9.98466C12.7369 9.98466 13.3762 9.71812 13.8998 9.19454C14.4227 8.67163 14.6887 8.03266 14.6887 7.29593C14.6887 6.55919 14.4227 5.92023 13.8998 5.39731C13.3762 4.87373 12.7369 4.6072 12 4.6072C11.2632 4.6072 10.6243 4.87364 10.1015 5.39722C9.57778 5.92007 9.31126 6.55906 9.31126 7.29593C9.31126 8.03279 9.57778 8.67178 10.1015 9.19463C10.6243 9.7182 11.2632 9.98466 12 9.98466Z" fill="white"/>
</svg>
