<svg width="40" height="40" viewBox="0 0 40 40" fill="none" xmlns="http://www.w3.org/2000/svg">
<path d="M20 35C19.7195 34.9994 19.4394 34.981 19.1613 34.945C16.5923 30.8286 15.1699 26.1005 15.0413 21.25H37.4375C37.4675 20.835 37.5 20.4213 37.5 20C37.5 16.5388 36.4736 13.1554 34.5507 10.2775C32.6278 7.39967 29.8947 5.15665 26.697 3.83212C23.4993 2.50758 19.9806 2.16102 16.5859 2.83627C13.1913 3.51151 10.0731 5.17822 7.62564 7.62564C5.17822 10.0731 3.51151 13.1913 2.83627 16.5859C2.16102 19.9806 2.50758 23.4993 3.83212 26.697C5.15665 29.8947 7.39967 32.6278 10.2775 34.5507C13.1554 36.4736 16.5388 37.5 20 37.5V35ZM34.9375 18.75H27.4538C27.3193 14.1504 26.1427 9.64132 24.0125 5.56251C26.9606 6.38517 29.5868 8.08911 31.5394 10.4461C33.492 12.803 34.6776 15.7004 34.9375 18.75ZM20.8375 5.05501C23.4069 9.17129 24.8297 13.8994 24.9588 18.75H15.0413C15.1703 13.8994 16.5931 9.17129 19.1625 5.05501C19.7193 4.98197 20.2832 4.98197 20.84 5.05501H20.8375ZM15.9863 5.56126C13.8565 9.6406 12.6802 14.1501 12.5463 18.75H5.06251C5.32257 15.7004 6.50829 12.8031 8.46085 10.4462C10.4134 8.08932 13.0395 6.38533 15.9875 5.56251L15.9863 5.56126ZM5.06251 21.25H12.5463C12.6808 25.8496 13.8575 30.3586 15.9875 34.4375C13.0395 33.6147 10.4134 31.9107 8.46085 29.5538C6.50829 27.1969 5.32257 24.2996 5.06251 21.25V21.25Z" fill="#343947"/>
<path fill-rule="evenodd" clip-rule="evenodd" d="M31.25 31.25L37.5 33.75V31.25L31.25 28.125V25C31.25 24.6685 31.1183 24.3505 30.8839 24.1161C30.6495 23.8817 30.3315 23.75 30 23.75C29.6685 23.75 29.3505 23.8817 29.1161 24.1161C28.8817 24.3505 28.75 24.6685 28.75 25V28.125L22.5 31.25V33.75L28.75 31.25V35.625L26.25 37.5V38.75L30 37.5L33.75 38.75V37.5L31.25 35.625V31.25Z" fill="#343947"/>
</svg>
