<svg width="24" height="24" viewBox="0 0 24 24" fill="none" xmlns="http://www.w3.org/2000/svg">
<path d="M12 0C5.38443 0 0 5.38443 0 12C0 18.6156 5.38443 24 12 24C18.6156 24 24 18.6156 24 12C24 5.38443 18.6156 0 12 0ZM12 2C17.5347 2 22 6.46531 22 12C22 17.0274 18.3117 21.1613 13.4883 21.8789V14.916H16.3359L16.7832 12.0234H13.4883V10.4434C13.4883 9.24236 13.8829 8.17578 15.0059 8.17578H16.8105V5.65234C16.4935 5.60934 15.8227 5.51562 14.5547 5.51562C11.9067 5.51562 10.3555 6.91361 10.3555 10.0996V12.0234H7.63281V14.916H10.3555V21.8535C5.60886 21.0706 2 16.973 2 12C2 6.46531 6.46531 2 12 2Z" fill="#838794"/>
</svg>
