<svg width="39" height="37" viewBox="0 0 39 37" fill="none" xmlns="http://www.w3.org/2000/svg">
<path d="M36.1055 0.99545C35.6016 1.01889 35.1269 1.16537 34.7051 1.32943H34.6992C34.2715 1.49936 32.2383 2.35482 29.1504 3.64975C26.0625 4.95053 22.0547 6.63803 18.0762 8.31381C10.1309 11.6595 2.32031 14.9525 2.32031 14.9525L2.41406 14.9173C2.41406 14.9173 1.87499 15.0931 1.31249 15.4798C1.02539 15.6673 0.708978 15.9251 0.433588 16.3294C0.158197 16.7337 -0.0644596 17.3548 0.0175724 17.9935C0.152338 19.0775 0.855464 19.7279 1.35937 20.0853C1.86913 20.4486 2.35546 20.6185 2.35546 20.6185H2.36718L9.6914 23.0853C10.0195 24.14 11.9238 30.3978 12.3809 31.8392C12.6504 32.7005 12.9141 33.2396 13.2422 33.6497C13.4004 33.8607 13.5879 34.0365 13.8105 34.1771C13.8984 34.2298 13.9922 34.2708 14.0859 34.306C14.1152 34.3236 14.1445 34.3294 14.1797 34.3353L14.1035 34.3177C14.1269 34.3236 14.1445 34.3412 14.1621 34.347C14.2207 34.3646 14.2617 34.3704 14.3379 34.3822C15.498 34.7337 16.4297 34.013 16.4297 34.013L16.4824 33.972L20.8066 30.0345L28.0547 35.5951L28.2187 35.6654C29.7305 36.3275 31.2598 35.9583 32.0684 35.3079C32.8828 34.6517 33.1992 33.8138 33.1992 33.8138L33.2519 33.679L38.8535 4.98568C39.0117 4.2767 39.0527 3.61459 38.8769 2.97006C38.7012 2.32553 38.25 1.72201 37.7051 1.39975C37.1543 1.07162 36.6094 0.972012 36.1055 0.99545ZM35.9531 4.07162C35.9473 4.16537 35.9648 4.15365 35.9238 4.33529V4.35287L30.375 32.7474C30.3516 32.7884 30.3105 32.8763 30.1992 32.9642C30.082 33.0579 29.9883 33.1165 29.5019 32.9232L20.6367 26.1263L15.2812 31.0072L16.4062 23.8236C16.4062 23.8236 30.293 10.8802 30.8906 10.3236C31.4883 9.76693 31.2891 9.64975 31.2891 9.64975C31.3301 8.97006 30.3867 9.45053 30.3867 9.45053L12.123 20.765L12.1172 20.7357L3.36328 17.7884V17.7826C3.35742 17.7826 3.3457 17.7767 3.33984 17.7767C3.3457 17.7767 3.38671 17.7591 3.38671 17.7591L3.43359 17.7357L3.48046 17.7181C3.48046 17.7181 11.2969 14.4251 19.2422 11.0794C23.2207 9.40365 27.2285 7.71615 30.3105 6.41537C33.3926 5.12045 35.6719 4.17123 35.8008 4.1185C35.9238 4.07162 35.8652 4.07162 35.9531 4.07162Z" fill="#343947"/>
</svg>
