<svg width="34" height="34" viewBox="0 0 34 34" fill="none" xmlns="http://www.w3.org/2000/svg">
<path d="M10.2031 0.5C4.87695 0.5 0.5 4.87109 0.5 10.2031V23.7969C0.5 29.123 4.87109 33.5 10.2031 33.5H23.7969C29.123 33.5 33.5 29.1289 33.5 23.7969V10.2031C33.5 4.87695 29.1289 0.5 23.7969 0.5H10.2031ZM10.2031 3.5H23.7969C27.5059 3.5 30.5 6.49414 30.5 10.2031V23.7969C30.5 27.5059 27.5059 30.5 23.7969 30.5H10.2031C6.49414 30.5 3.5 27.5059 3.5 23.7969V10.2031C3.5 6.49414 6.49414 3.5 10.2031 3.5ZM25.8594 6.78125C25.1035 6.78125 24.5 7.38477 24.5 8.14062C24.5 8.89648 25.1035 9.5 25.8594 9.5C26.6152 9.5 27.2188 8.89648 27.2188 8.14062C27.2188 7.38477 26.6152 6.78125 25.8594 6.78125ZM17 8C12.0488 8 8 12.0488 8 17C8 21.9512 12.0488 26 17 26C21.9512 26 26 21.9512 26 17C26 12.0488 21.9512 8 17 8ZM17 11C20.334 11 23 13.666 23 17C23 20.334 20.334 23 17 23C13.666 23 11 20.334 11 17C11 13.666 13.666 11 17 11Z" fill="#343947"/>
</svg>
