<svg width="22" height="29" viewBox="0 0 22 29" fill="none" xmlns="http://www.w3.org/2000/svg">
<path fill-rule="evenodd" clip-rule="evenodd" d="M19.4231 12.6479V20.2493L21.4711 22.2973C22.1126 22.9388 21.6641 24.0345 20.7491 24.0345H1.23585C0.340645 24.0345 -0.116428 22.9424 0.52861 22.2973L2.57658 20.2493V12.6479C2.57658 8.24715 4.89105 4.68421 8.88496 3.73791L9.24396 3.65286V2.27641C9.24396 1.30432 10.0278 0.520508 10.9999 0.520508C11.9719 0.520508 12.7558 1.30432 12.7558 2.27641V3.65256L13.1144 3.73783C17.0941 4.68406 19.4231 8.26238 19.4231 12.6479ZM4.60674 22.0043H17.393V12.6479C17.393 10.7191 16.8058 8.94014 15.703 7.63512C14.5938 6.32258 12.9817 5.51395 10.9999 5.51395C9.01801 5.51395 7.40596 6.32258 6.29674 7.63512C5.19389 8.94014 4.60674 10.7191 4.60674 12.6479V22.0043Z" fill="white"/>
<path d="M9.23441 27.7481C8.87769 27.3914 8.64006 26.9378 8.54711 26.4492H13.4525C13.2321 27.6008 12.2127 28.4794 10.9999 28.4794C10.3377 28.4794 9.70264 28.2163 9.23441 27.7481Z" fill="white"/>
</svg>
